<svg width="24" height="24" viewBox="0 0 24 24" fill="none" xmlns="http://www.w3.org/2000/svg">
<path d="M20.9971 13.9987C20.9971 13.342 20.8677 12.6919 20.6165 12.0852C20.3652 11.4786 19.9969 10.9274 19.5326 10.4631C19.0683 9.99883 18.5171 9.63053 17.9105 9.37926C17.3039 9.12799 16.6537 8.99866 15.9971 8.99866" stroke="#D4D4D4" stroke-width="1.7" stroke-linejoin="round"/>
<rect x="13.9971" y="4.99878" width="4" height="4" rx="2" stroke="#D4D4D4" stroke-width="1.7" stroke-linejoin="round"/>
<path d="M2.99707 13.9987C2.99707 13.342 3.1264 12.6919 3.37767 12.0852C3.62895 11.4786 3.99724 10.9274 4.46154 10.4631C4.92583 9.99883 5.47703 9.63053 6.08365 9.37926C6.69028 9.12799 7.34046 8.99866 7.99707 8.99866" stroke="#D4D4D4" stroke-width="1.7" stroke-linejoin="round"/>
<rect width="4" height="4" rx="2" transform="matrix(-1 0 0 1 9.99707 4.99878)" stroke="#D4D4D4" stroke-width="1.7" stroke-linejoin="round"/>
<path d="M6.99707 20.9984C6.99707 20.3418 7.1264 19.6916 7.37767 19.085C7.62895 18.4784 7.99724 17.9272 8.46154 17.4629C8.92583 16.9986 9.47703 16.6303 10.0837 16.379C10.6903 16.1277 11.3405 15.9984 11.9971 15.9984C12.6537 15.9984 13.3039 16.1277 13.9105 16.379C14.5171 16.6303 15.0683 16.9986 15.5326 17.4629C15.9969 17.9272 16.3652 18.4784 16.6165 19.085C16.8677 19.6916 16.9971 20.3418 16.9971 20.9984" stroke="#D4D4D4" stroke-width="1.7" stroke-linejoin="round"/>
<rect x="9.99707" y="10.9986" width="4" height="4" rx="2" stroke="#D4D4D4" stroke-width="1.7" stroke-linejoin="round"/>
</svg>
