<svg width="540" height="58" viewBox="0 0 540 58" fill="none" xmlns="http://www.w3.org/2000/svg">
    <rect x="134.99" y="1.49902" width="270" height="56" fill="#FF9A2A"/>
    <g clip-path="url(#clip0_20_24218)">
    <path d="M34.3072 32.293C25.3572 49.5865 8.94898 56.1745 -0.000976562 56.998H269.99C256.266 56.998 239.41 47.9399 232.698 32.293C225.986 16.6461 214.798 1 194.661 1H72.107C60.9195 1 45.5614 10.5472 34.3072 32.293Z" fill="#FF9A2A"/>
    </g>
    <path d="M304.317 32.5949C295.367 50.1978 278.959 56.9037 270.009 57.7419H540C526.276 57.7419 509.421 48.5218 502.708 32.5949C495.996 16.668 484.808 0.741943 464.671 0.741943H342.117C330.93 0.741943 315.572 10.46 304.317 32.5949Z" fill="white"/>
    <defs>
    <clipPath id="clip0_20_24218">
    <rect width="270" height="57" fill="white" transform="translate(0 1)"/>
    </clipPath>
    </defs>
  </svg>