<svg width="1440" height="583" viewBox="0 0 1440 583" fill="none" xmlns="http://www.w3.org/2000/svg">
<g clip-path="url(#clip0_20_24194)">
<mask id="mask0_20_24194" style="mask-type:luminance" maskUnits="userSpaceOnUse" x="0" y="0" width="1440" height="614">
<path d="M1439.96 0.0717773H0.015625V613.193H1439.96V0.0717773Z" fill="white"/>
</mask>
<g mask="url(#mask0_20_24194)">
<path d="M1439.96 0.0717773H0.0136719V613.193H1439.96V0.0717773Z" fill="url(#paint0_radial_20_24194)"/>
<path d="M1019.2 594.033C1019.7 587.543 1019.97 580.973 1019.97 574.124C1019.97 426.802 889.933 307.59 729.501 307.59C569.069 307.59 438.995 427.041 438.995 574.124C438.995 580.787 439.264 587.423 439.802 594.033H1019.2Z" fill="#E3F8FF"/>
<g style="mix-blend-mode:overlay" opacity="0.56">
<path d="M661.238 605.782C646.269 605.774 631.721 610.764 619.873 619.968C617.557 609.893 611.998 600.871 604.06 594.301C596.121 587.732 586.248 583.985 575.974 583.641C565.701 583.298 555.602 586.377 547.247 592.401C538.892 598.426 532.75 607.057 529.774 616.955C522.699 612.814 514.546 610.922 506.383 611.526C498.22 612.13 490.43 615.203 484.034 620.34C477.936 611.349 469.269 604.432 459.179 600.502C449.089 596.573 438.05 595.817 427.524 598.333C426.309 585.674 421.491 573.636 413.647 563.661C405.803 553.687 395.266 546.2 383.298 542.097C383.771 538.948 384.008 535.768 384.005 532.583C384.02 519.027 379.764 505.814 371.848 494.843C363.931 483.873 352.762 475.708 339.944 471.521C327.127 467.335 313.32 467.342 300.507 471.543C287.694 475.744 276.533 483.921 268.629 494.901C257.913 489.909 246.109 487.747 234.331 488.618C222.554 489.488 211.191 493.364 201.315 499.878C201.315 498.93 201.315 498.015 201.315 497.067C201.334 485.606 198.296 474.348 192.519 464.469C186.742 454.589 178.437 446.449 168.469 440.896C158.501 435.343 147.235 432.581 135.845 432.897C124.455 433.213 113.358 436.596 103.71 442.693C101.201 433.967 95.8264 426.352 88.4633 421.093C88.6652 418.655 88.8335 416.217 88.8335 413.712C88.8465 398.805 84.8802 384.167 77.349 371.329C69.8177 358.49 58.9978 347.921 46.0192 340.726C33.0406 333.53 18.3795 329.972 3.56703 330.423C-11.2454 330.874 -25.6658 335.318 -38.188 343.289C-38.6204 334.444 -41.499 325.895 -46.4997 318.607C-51.5004 311.318 -58.4246 305.578 -66.4926 302.033C-74.5607 298.489 -83.4522 297.28 -92.1661 298.544C-100.88 299.807 -109.07 303.493 -115.814 309.185C-122.559 314.878 -127.589 322.351 -130.34 330.764C-133.091 339.177 -133.452 348.196 -131.383 356.804C-129.314 365.412 -124.898 373.269 -118.63 379.488C-112.363 385.708 -104.494 390.045 -95.9097 392.01V693.336H405.579C415.131 701.028 427.001 705.22 439.236 705.22C451.472 705.22 463.342 701.028 472.893 693.336H596.044C599.583 705.543 606.431 716.518 615.821 725.03C625.211 733.542 636.773 739.255 649.21 741.528C661.646 743.802 674.467 742.546 686.234 737.902C698.001 733.258 708.25 725.409 715.832 715.234C723.414 705.06 728.029 692.963 729.16 680.298C730.291 667.634 727.893 654.903 722.235 643.532C716.578 632.161 707.884 622.6 697.128 615.921C686.372 609.241 673.979 605.707 661.339 605.714L661.238 605.782Z" fill="#FFFAD7"/>
</g>
<g style="mix-blend-mode:overlay" opacity="0.56">
<path d="M1580.38 312.75C1568.68 322.123 1560.4 335.122 1556.82 349.722C1548.76 343.266 1538.81 339.671 1528.51 339.499C1518.21 339.326 1508.14 342.584 1499.88 348.767C1491.61 354.949 1485.61 363.708 1482.81 373.679C1480 383.649 1480.56 394.273 1484.39 403.893C1476.3 405.093 1468.77 408.717 1462.76 414.291C1456.76 419.866 1452.56 427.133 1450.73 435.143C1442.36 432.555 1433.49 432.06 1424.88 433.7C1416.28 435.34 1408.2 439.066 1401.35 444.555C1398.17 447.137 1395.28 450.067 1392.74 453.29C1383.96 444.141 1372.74 437.73 1360.43 434.823C1348.13 431.917 1335.25 432.639 1323.34 436.903C1321.78 434.13 1320.01 431.482 1318.05 428.981C1309.69 418.351 1298.18 410.663 1285.2 407.02C1272.22 403.378 1258.42 403.969 1245.79 408.709C1233.16 413.449 1222.35 422.093 1214.92 433.4C1207.48 444.707 1203.79 458.095 1204.39 471.641C1192.94 474.41 1182.38 480.06 1173.7 488.061C1165.01 496.062 1158.49 506.151 1154.75 517.381C1154.18 516.636 1153.71 515.858 1153.1 515.113C1146.03 506.13 1136.7 499.218 1126.08 495.096C1115.45 490.975 1103.92 489.795 1092.69 491.679C1081.46 493.563 1070.93 498.443 1062.21 505.81C1053.49 513.177 1046.9 522.761 1043.11 533.565C1035.76 528.296 1026.85 525.694 1017.83 526.184C1016.49 524.153 1015.11 522.121 1013.56 520.191C1004.35 508.509 992.198 499.527 978.363 494.184C964.529 488.841 949.522 487.332 934.91 489.816C920.297 492.3 906.616 498.685 895.295 508.304C883.974 517.924 875.428 530.424 870.55 544.501C864.745 537.827 857.204 532.917 848.775 530.324C840.345 527.731 831.364 527.558 822.842 529.824C814.32 532.09 806.597 536.705 800.542 543.149C794.488 549.594 790.343 557.611 788.575 566.297C786.807 574.984 787.486 583.995 790.535 592.314C793.585 600.634 798.884 607.931 805.835 613.384C812.785 618.836 821.112 622.228 829.876 623.176C838.64 624.124 847.493 622.59 855.438 618.749L1041.86 854.833L1491.49 643.498C1503.3 643.498 1531.47 611.808 1541.47 603.818C1551.46 595.828 1554.59 573.076 1557.22 561.497L1583.3 422.243C1593.62 429.582 1605.77 433.885 1618.39 434.67C1631 435.454 1643.58 432.69 1654.72 426.687C1665.86 420.683 1675.12 411.678 1681.46 400.68C1687.8 389.681 1690.97 377.124 1690.61 364.416C1690.26 351.708 1686.39 339.35 1679.45 328.727C1672.5 318.105 1662.76 309.637 1651.3 304.274C1639.84 298.91 1627.12 296.862 1614.57 298.359C1602.02 299.856 1590.13 304.839 1580.24 312.75H1580.38Z" fill="#F9F7EE"/>
</g>
<path d="M1077.86 373.579L1092.12 355.156L1077.86 367.187L774.268 398.126C774.087 387.224 769.88 376.78 762.464 368.826L818.813 352.256C818.918 352.219 819.005 352.145 819.06 352.049C819.114 351.952 819.131 351.838 819.108 351.729C819.085 351.621 819.024 351.524 818.935 351.458C818.846 351.391 818.736 351.36 818.626 351.369L755.815 362.971C750.545 359.23 744.516 356.707 738.162 355.586L731.379 273.191C731.345 273.006 731.248 272.839 731.104 272.719C730.96 272.598 730.779 272.532 730.591 272.532C730.404 272.532 730.223 272.598 730.079 272.719C729.935 272.839 729.838 273.006 729.804 273.191L723.074 355.505C716.719 356.623 710.689 359.145 705.421 362.89L642.557 351.369C642.446 351.36 642.337 351.391 642.248 351.458C642.159 351.524 642.097 351.621 642.074 351.729C642.052 351.838 642.069 351.952 642.123 352.049C642.178 352.145 642.265 352.219 642.37 352.256L698.638 368.826C691.204 376.77 686.986 387.218 686.808 398.126L383.326 367.187L369.065 355.21L383.326 373.633C383.326 373.633 510.177 388.592 591.122 400.086V406.209C585.298 406.866 579.94 409.724 576.133 414.204C572.327 418.684 570.355 424.452 570.618 430.339C570.882 436.226 573.36 441.793 577.552 445.911C581.743 450.029 587.335 452.392 593.193 452.52C599.052 452.648 604.74 450.532 609.106 446.601C613.471 442.669 616.188 437.217 616.705 431.346C617.223 425.476 615.503 419.628 611.893 414.986C608.283 410.343 603.054 407.254 597.264 406.343V400.972C621.433 404.437 640.821 407.552 650.408 409.727C650.408 409.727 672.04 419.127 679.918 420.121C686.274 420.926 695.06 426.378 698.184 428.446C702.28 432.997 707.279 436.635 712.858 439.124C718.438 441.614 724.474 442.9 730.578 442.9C736.682 442.9 742.718 441.614 748.298 439.124C753.877 436.635 758.876 432.997 762.972 428.446C766.123 426.378 774.909 420.926 781.265 420.121C789.117 419.127 810.775 409.727 810.775 409.727C820.335 407.552 839.724 404.356 863.892 400.972V406.343C858.124 407.253 852.915 410.333 849.32 414.96C845.725 419.587 844.012 425.415 844.529 431.263C845.046 437.112 847.754 442.545 852.104 446.461C856.454 450.378 862.122 452.486 867.959 452.358C873.797 452.231 879.368 449.877 883.545 445.774C887.721 441.671 890.192 436.125 890.456 430.259C890.719 424.394 888.757 418.646 884.965 414.181C881.174 409.716 875.836 406.866 870.034 406.209V400.086C950.979 388.672 1077.86 373.579 1077.86 373.579ZM710.282 388.672L705.528 386.846L712.018 378.145L713.914 378.521L709.374 388.269L710.282 388.672ZM711.564 388.296L715.917 378.95L717.118 379.192L714.715 387.249L711.564 388.296ZM729.59 388.028L716.878 387.088L719.121 379.434L729.59 379.998V388.028ZM731.593 388.028V379.971L742.035 379.407L744.305 387.061L731.593 388.028ZM746.468 387.356L744.064 379.299L744.812 379.138L749.566 388.404L746.468 387.356ZM751.809 388.323L746.815 378.601L749.112 378.145L755.601 386.846L751.809 388.323Z" fill="#FF9A2A"/>
<path d="M746.844 378.574L751.838 388.269L755.63 386.792L749.14 378.091L746.844 378.574Z" fill="#FFFBE3"/>
<path d="M716.878 387.034L729.59 387.974V379.944L719.121 379.38L716.878 387.034Z" fill="#FFFBE3"/>
<path d="M715.916 378.897L711.562 388.243L714.714 387.303L717.117 379.138L715.916 378.897Z" fill="#FFFBE3"/>
<path d="M713.914 378.467L712.018 378.091L705.528 386.792L710.282 388.619L709.374 388.216L713.914 378.467Z" fill="#FFFBE3"/>
<path d="M744.065 379.138L746.469 387.303L749.567 388.243L744.813 378.977L744.065 379.138Z" fill="#FFFBE3"/>
<path d="M731.594 379.944V387.974L744.306 387.034L742.036 379.38L731.594 379.944Z" fill="#FFFBE3"/>
<path d="M1217.19 421.569C1211.56 413.889 1203.23 408.654 1193.9 406.93C1184.57 405.207 1174.94 407.124 1166.97 412.292C1166.97 412.292 1200.9 402.474 1213.89 435.247C1240.34 412.055 1266.06 436.364 1266.06 436.364C1261.31 428.105 1253.61 421.977 1244.53 419.228C1235.45 416.479 1225.67 417.316 1217.19 421.569Z" fill="#FF9A2A"/>
<path d="M336.364 437.037C332.174 434.058 327.013 432.796 321.931 433.507C316.848 434.217 312.225 436.847 309.001 440.863C309.001 440.863 324.753 430.029 336.97 444.655C346.663 428.234 363.896 436.326 363.896 436.326C360.069 432.918 355.1 431.096 349.991 431.228C344.881 431.36 340.012 433.436 336.364 437.037Z" fill="#FF9A2A"/>
<path d="M1369.45 302.226C1365.03 299.612 1359.8 298.784 1354.8 299.909C1349.8 301.035 1345.41 304.029 1342.52 308.287C1342.52 308.287 1357.33 296.2 1370.73 309.743C1379.01 292.577 1396.91 299.213 1396.91 299.213C1392.81 296.111 1387.69 294.696 1382.59 295.256C1377.49 295.816 1372.79 298.308 1369.45 302.226Z" fill="#FF9A2A"/>
<path d="M1379.34 515.524C1376.7 512.617 1373.06 510.83 1369.16 510.528C1365.26 510.226 1361.39 511.432 1358.34 513.899C1358.34 513.899 1371.8 508.381 1378.53 521.28C1388.4 510.615 1400.01 519.486 1400.01 519.486C1397.71 516.309 1394.29 514.131 1390.45 513.395C1386.61 512.66 1382.64 513.421 1379.34 515.524Z" fill="#FF9A2A"/>
<path d="M113.921 336.376C108.855 330.096 101.6 325.995 93.6341 324.907C85.6679 323.819 77.589 325.825 71.0417 330.518C71.0417 330.518 99.3473 320.869 111.666 348.124C133.173 327.437 155.891 347.007 155.891 347.007C151.553 340.196 144.797 335.305 136.999 333.33C129.201 331.355 120.948 332.444 113.921 336.376Z" fill="#FF9A2A"/>
<path d="M149.234 500.225C144.121 496.676 137.856 495.222 131.715 496.159C125.573 497.097 120.019 500.355 116.183 505.269C116.183 505.269 135.098 491.726 150.109 509.4C161.552 489.356 182.622 498.904 182.622 498.904C177.937 494.803 171.873 492.656 165.667 492.901C159.462 493.147 153.584 495.766 149.234 500.225Z" fill="#FF9A2A"/>
</g>
</g>
<defs>
<radialGradient id="paint0_radial_20_24194" cx="0" cy="0" r="1" gradientUnits="userSpaceOnUse" gradientTransform="translate(722.303 862.608) scale(1092.16 1519.7)">
<stop stop-color="#C8EAF1"/>
<stop offset="0.142857" stop-color="#C5E9F2"/>
<stop offset="0.285714" stop-color="#9AE2F9"/>
<stop offset="0.428571" stop-color="#98E2F9"/>
<stop offset="0.571429" stop-color="#7AD6FE"/>
<stop offset="0.714286" stop-color="#80D5F9"/>
<stop offset="0.857143" stop-color="#23BCDE"/>
<stop offset="1" stop-color="#0FA4E4"/>
</radialGradient>
<clipPath id="clip0_20_24194">
<rect width="1439.95" height="581.979" fill="white" transform="translate(0.015625 0.0717773)"/>
</clipPath>
</defs>
</svg>
