<svg width="2426" height="2965" viewBox="0 0 2426 2965" fill="none" xmlns="http://www.w3.org/2000/svg">
<g id="Plane (seat selection)">
<path id="Rectangle 9" d="M1181.84 2666.02L762.645 2779.88C759.951 2766.37 759.639 2755.88 760.346 2748.26C761.054 2740.62 762.78 2735.89 764.12 2733.86L1135.08 2487.92L1135.38 2487.72L1135.28 2487.37L1119.31 2426.77C1118.76 2424.68 1118.26 2422.66 1117.79 2420.56C1112.88 2398.45 1083.5 2262.57 1083.5 2171.5V1667.5V1667H1083H904.87C894.874 1667 885.088 1668.44 875.531 1671.38C647.042 1741.53 217.903 1873.65 157.849 1893.57C155.116 1894.48 152.392 1892.59 152.142 1889.68C146.5 1824.11 179.424 1785.66 197.053 1774.43C197.057 1774.43 197.062 1774.42 197.066 1774.42L979.613 1347.83L979.638 1347.82L979.66 1347.8L1039.21 1306.25C1047.18 1300.69 1054.3 1294.01 1060.35 1286.4L1084.1 1256.54C1085.58 1254.69 1086.38 1252.38 1086.38 1250.01V1184V632.025C1086.38 620.724 1087.34 609.457 1089.3 598.329C1096.03 560.253 1113.17 465.485 1128.49 400.114C1138.74 356.36 1151.61 302.634 1166.1 259.848C1173.35 238.452 1180.99 219.82 1188.9 206.545C1192.85 199.907 1196.86 194.632 1200.9 191.022C1204.94 187.412 1208.98 185.5 1213 185.5C1217.02 185.5 1221.08 187.427 1225.16 191.064C1229.24 194.7 1233.3 200.01 1237.31 206.687C1245.34 220.04 1253.12 238.766 1260.46 260.224C1275.14 303.133 1288.01 356.86 1297.51 400.107C1311.81 465.194 1329.31 558.914 1336.41 597.488C1338.56 609.187 1339.62 621.029 1339.62 632.926V1184V1250.01C1339.62 1252.38 1340.42 1254.69 1341.9 1256.54L1365.65 1286.4C1371.7 1294.01 1378.82 1300.69 1386.79 1306.25L1446.34 1347.8L1446.36 1347.82L1446.39 1347.83L2228.93 1774.42C2228.94 1774.42 2228.94 1774.43 2228.95 1774.43C2246.58 1785.66 2279.5 1824.11 2273.86 1889.68C2273.61 1892.59 2270.88 1894.48 2268.15 1893.57C2208.1 1873.65 1778.96 1741.53 1550.47 1671.38C1540.91 1668.44 1531.13 1667 1521.13 1667H1343H1342.5V1667.5V2171.5C1342.5 2262.57 1313.12 2398.45 1308.21 2420.56C1307.74 2422.66 1307.24 2424.68 1306.69 2426.77L1290.72 2487.37L1290.62 2487.72L1290.92 2487.92L1660.4 2733.86C1661.74 2735.89 1663.47 2740.62 1664.18 2748.26C1664.88 2755.88 1664.57 2766.37 1661.88 2779.88L1244.16 2666.02L1243.67 2665.89L1243.54 2666.37L1240.02 2679.74L1240.02 2679.75L1240.02 2679.75L1240.01 2679.77L1239.99 2679.84C1239.97 2679.91 1239.94 2680.01 1239.91 2680.14C1239.83 2680.4 1239.72 2680.79 1239.57 2681.28C1239.27 2682.26 1238.82 2683.67 1238.22 2685.35C1237.04 2688.73 1235.27 2693.22 1232.95 2697.71C1230.64 2702.2 1227.78 2706.67 1224.42 2710C1221.07 2713.34 1217.25 2715.5 1213 2715.5C1208.75 2715.5 1204.93 2713.34 1201.58 2710C1198.22 2706.67 1195.36 2702.2 1193.05 2697.71C1190.73 2693.22 1188.96 2688.73 1187.78 2685.35C1187.18 2683.67 1186.73 2682.26 1186.43 2681.28C1186.28 2680.79 1186.17 2680.4 1186.09 2680.14C1186.06 2680.01 1186.03 2679.91 1186.01 2679.84L1185.99 2679.77L1185.98 2679.75L1185.98 2679.75L1185.98 2679.75L1182.46 2666.37L1182.33 2665.89L1181.84 2666.02Z" fill="url(#paint0_linear_2261_2619)" stroke="#FF9A2A"/>
<path id="Vector 17" opacity="0.4" d="M1138.39 439.743L1150.67 412.724C1153.92 405.584 1161.04 401 1168.88 401H1205.5C1207.71 401 1209.5 402.791 1209.5 405V435.513C1209.5 437.722 1207.71 439.507 1205.5 439.564C1193.17 439.883 1185.74 441.646 1172.75 443C1165.57 443.748 1161.68 444.224 1154.38 445C1150.56 445.405 1145.58 445.378 1141.77 445.264C1138.98 445.181 1137.23 442.286 1138.39 439.743Z" fill="white" fill-opacity="0.6" stroke="#7C8DB0" stroke-opacity="0.2"/>
<path id="Vector 18" opacity="0.4" d="M1288.11 439.743L1275.83 412.724C1272.58 405.584 1265.46 401 1257.62 401H1221C1218.79 401 1217 402.791 1217 405V435.513C1217 437.722 1218.79 439.507 1221 439.564C1233.33 439.883 1240.76 441.646 1253.75 443C1260.93 443.748 1264.82 444.224 1272.12 445C1275.94 445.405 1280.92 445.378 1284.73 445.264C1287.52 445.181 1289.27 442.286 1288.11 439.743Z" fill="white" fill-opacity="0.6" stroke="#7C8DB0" stroke-opacity="0.2"/>
<path id="Rectangle 15" d="M1104 618C1104 618 1104 615.5 1128.41 488C1134.29 457.278 1181.58 458 1213 458C1244.42 458 1291.71 457.278 1297.59 488C1322 615.5 1322 618 1322 618V2270C1322 2270 1322 2270 1307.59 2330.25C1300.31 2360.71 1213 2360.5 1213 2360.5C1213 2360.5 1125.69 2360.71 1118.41 2330.25C1104 2270 1104 2270 1104 2270V618Z" fill="white" fill-opacity="0.6" stroke="#7C8DB0" stroke-opacity="0.2"/>
<g id="business">
<rect x="1113" y="617" width="200" height="312" rx="8" fill="white"/>
<g id="seat row / business">
<rect width="200" height="48" transform="translate(1113 629)" fill="white"/>
<g id="seat">
<g id=".base / business">
<rect x="1121" y="633" width="30" height="40" rx="4" fill="#FFDAD9"/>
</g>
</g>
<g id="seat_2">
<g id=".base / business_2">
<rect x="1159.5" y="633" width="30" height="40" rx="4" fill="#E15454"/>
</g>
</g>
<g id="row number">
<path id="1" d="M1210.54 658V657.02H1212.79V649.124H1213.39L1211.01 650.636L1210.52 649.782L1213.11 648.13H1213.94V657.02H1216.05V658H1210.54Z" fill="#7C8DB0"/>
</g>
<g id="seat_3">
<g id=".base / business_3">
<rect x="1236.5" y="633" width="30" height="40" rx="4" fill="#E15454"/>
</g>
</g>
<g id="seat_4">
<g id=".base / business_4">
<rect x="1275" y="633" width="30" height="40" rx="4" fill="#E15454"/>
</g>
</g>
</g>
<g id="seat row / business_2">
<rect width="200" height="48" transform="translate(1113 689)" fill="white"/>
<g id="seat_5">
<g id=".base / business_5">
<rect x="1121" y="693" width="30" height="40" rx="4" fill="#E15454"/>
</g>
</g>
<g id="seat_6">
<g id=".base / business_6">
<rect x="1159.5" y="693" width="30" height="40" rx="4" fill="#E15454"/>
</g>
</g>
<g id="row number_2">
<path id="1_2" d="M1210.06 718V717.132L1213.44 713.492C1213.75 713.147 1214.01 712.825 1214.21 712.526C1214.4 712.218 1214.55 711.919 1214.64 711.63C1214.73 711.341 1214.78 711.047 1214.78 710.748C1214.78 710.188 1214.61 709.763 1214.26 709.474C1213.93 709.175 1213.43 709.026 1212.78 709.026C1212.27 709.026 1211.8 709.119 1211.36 709.306C1210.94 709.483 1210.52 709.763 1210.13 710.146L1209.7 709.25C1210.06 708.877 1210.52 708.578 1211.08 708.354C1211.65 708.121 1212.25 708.004 1212.88 708.004C1213.54 708.004 1214.1 708.107 1214.56 708.312C1215.01 708.517 1215.36 708.821 1215.59 709.222C1215.83 709.614 1215.94 710.095 1215.94 710.664C1215.94 710.963 1215.91 711.257 1215.83 711.546C1215.77 711.826 1215.66 712.111 1215.51 712.4C1215.37 712.68 1215.19 712.969 1214.96 713.268C1214.75 713.567 1214.49 713.875 1214.18 714.192L1211.21 717.342V717.02H1216.35V718H1210.06Z" fill="#7C8DB0"/>
</g>
<g id="seat_7">
<g id=".base / business_7">
<rect x="1236.5" y="693" width="30" height="40" rx="4" fill="#E15454"/>
</g>
</g>
<g id="seat_8">
<g id=".base / business_8">
<rect x="1275" y="693" width="30" height="40" rx="4" fill="#E15454"/>
</g>
</g>
</g>
<g id="seat row / business_3">
<rect width="200" height="48" transform="translate(1113 749)" fill="white"/>
<g id="seat_9">
<g id=".base / business_9">
<rect x="1121" y="753" width="30" height="40" rx="4" fill="#E15454"/>
</g>
</g>
<g id="seat_10">
<g id=".base / business_10">
<rect x="1159.5" y="753" width="30" height="40" rx="4" fill="#E15454"/>
</g>
</g>
<g id="row number_3">
<path id="1_3" d="M1212.89 778.126C1212.45 778.126 1212.03 778.079 1211.62 777.986C1211.22 777.893 1210.84 777.762 1210.48 777.594C1210.13 777.417 1209.82 777.202 1209.54 776.95L1209.96 776.04C1210.42 776.413 1210.88 776.684 1211.35 776.852C1211.82 777.02 1212.32 777.104 1212.86 777.104C1213.34 777.104 1213.74 777.034 1214.07 776.894C1214.39 776.754 1214.64 776.549 1214.81 776.278C1214.98 775.998 1215.06 775.657 1215.06 775.256C1215.06 774.677 1214.87 774.239 1214.49 773.94C1214.1 773.641 1213.55 773.492 1212.82 773.492H1211.36V772.498H1212.72C1213.15 772.498 1213.52 772.423 1213.81 772.274C1214.12 772.125 1214.36 771.915 1214.53 771.644C1214.7 771.364 1214.78 771.028 1214.78 770.636C1214.78 770.113 1214.61 769.717 1214.28 769.446C1213.94 769.166 1213.46 769.026 1212.82 769.026C1212.3 769.026 1211.82 769.119 1211.38 769.306C1210.94 769.483 1210.52 769.763 1210.13 770.146L1209.71 769.25C1210.09 768.858 1210.55 768.555 1211.11 768.34C1211.68 768.116 1212.27 768.004 1212.89 768.004C1213.53 768.004 1214.07 768.107 1214.51 768.312C1214.97 768.508 1215.32 768.797 1215.56 769.18C1215.81 769.553 1215.93 770.006 1215.93 770.538C1215.93 771.145 1215.76 771.667 1215.42 772.106C1215.09 772.535 1214.63 772.829 1214.05 772.988V772.834C1214.51 772.909 1214.9 773.058 1215.21 773.282C1215.54 773.506 1215.79 773.795 1215.96 774.15C1216.12 774.495 1216.21 774.892 1216.21 775.34C1216.21 775.909 1216.07 776.404 1215.8 776.824C1215.54 777.235 1215.16 777.557 1214.67 777.79C1214.17 778.014 1213.58 778.126 1212.89 778.126Z" fill="#7C8DB0"/>
</g>
<g id="seat_11">
<g id=".base / business_11">
<rect x="1236.5" y="753" width="30" height="40" rx="4" fill="#E15454"/>
</g>
</g>
<g id="seat_12">
<g id=".base / business_12">
<rect x="1275" y="753" width="30" height="40" rx="4" fill="#E15454"/>
</g>
</g>
</g>
<g id="seat row / business_4">
<rect width="200" height="48" transform="translate(1113 809)" fill="white"/>
<g id="seat_13">
<g id=".base / business_13">
<rect x="1121" y="813" width="30" height="40" rx="4" fill="#2E9881"/>
<g id="18 / check">
<path id="Vector 10" d="M1130.73 832.757L1134.48 836.515L1142 829" stroke="#F6F6FE" stroke-width="1.5" stroke-linecap="round" stroke-linejoin="round"/>
</g>
</g>
</g>
<g id="seat_14">
<g id=".base / business_14">
<rect x="1159.5" y="813" width="30" height="40" rx="4" fill="#E15454"/>
</g>
</g>
<g id="row number_4">
<path id="1_4" d="M1214.08 838V835.886H1209.53V835.018L1214.28 828.13H1215.24V834.906H1216.71V835.886H1215.24V838H1214.08ZM1214.08 834.906V829.516H1214.42L1210.51 835.214V834.906H1214.08Z" fill="#7C8DB0"/>
</g>
<g id="seat_15">
<g id=".base / business_15">
<rect x="1236.5" y="813" width="30" height="40" rx="4" fill="#E15454"/>
</g>
</g>
<g id="seat_16">
<g id=".base / business_16">
<rect x="1275" y="813" width="30" height="40" rx="4" fill="#E15454"/>
</g>
</g>
</g>
<g id="seat row / business_5">
<rect width="200" height="48" transform="translate(1113 869)" fill="white"/>
<g id="seat_17">
<g id=".base / business_17">
<rect x="1121" y="873" width="30" height="40" rx="4" fill="#E15454"/>
</g>
</g>
<g id="seat_18">
<g id=".base / business_18">
<rect x="1159.5" y="873" width="30" height="40" rx="4" fill="#E15454"/>
</g>
</g>
<g id="row number_5">
<path id="1_5" d="M1213.21 898.126C1212.79 898.126 1212.38 898.079 1211.98 897.986C1211.58 897.893 1211.2 897.757 1210.85 897.58C1210.5 897.403 1210.19 897.193 1209.92 896.95L1210.36 896.04C1210.8 896.404 1211.26 896.675 1211.71 896.852C1212.18 897.02 1212.68 897.104 1213.2 897.104C1213.89 897.104 1214.43 896.913 1214.81 896.53C1215.2 896.147 1215.4 895.643 1215.4 895.018C1215.4 894.374 1215.21 893.847 1214.84 893.436C1214.46 893.025 1213.95 892.82 1213.3 892.82C1212.82 892.82 1212.4 892.918 1212.04 893.114C1211.68 893.301 1211.36 893.595 1211.07 893.996H1210.23V888.13H1215.96V889.11H1211.36V893.044H1211.06C1211.3 892.652 1211.64 892.353 1212.06 892.148C1212.49 891.933 1212.97 891.826 1213.51 891.826C1214.13 891.826 1214.67 891.957 1215.12 892.218C1215.57 892.479 1215.92 892.848 1216.17 893.324C1216.42 893.791 1216.54 894.337 1216.54 894.962C1216.54 895.578 1216.41 896.124 1216.14 896.6C1215.87 897.076 1215.49 897.449 1214.99 897.72C1214.5 897.991 1213.9 898.126 1213.21 898.126Z" fill="#7C8DB0"/>
</g>
<g id="seat_19">
<g id=".base / business_19">
<rect x="1236.5" y="873" width="30" height="40" rx="4" fill="#E15454"/>
</g>
</g>
<g id="seat_20">
<g id=".base / business_20">
<rect x="1275" y="873" width="30" height="40" rx="4" fill="#E15454"/>
</g>
</g>
</g>
</g>
<g id="economy">
<rect x="1113" y="942" width="200" height="1332" rx="8" fill="white"/>
<g id="seat row / exit row">
<rect width="200" height="18" transform="translate(1113 950)" fill="white"/>
<path id="Exit row" d="M1139.41 963V954.54H1144.88V955.548H1140.61V958.2H1144.63V959.208H1140.61V961.992H1144.88V963H1139.41ZM1145.56 963L1148.24 959.676V960.276L1145.72 957.144H1147.13L1148.92 959.424H1148.49L1150.28 957.144H1151.69L1149.17 960.252V959.712L1151.85 963H1150.41L1148.49 960.576H1148.9L1146.99 963H1145.56ZM1152.64 955.788V954.528H1154.06V955.788H1152.64ZM1152.75 963V957.144H1153.96V963H1152.75ZM1158.17 963.108C1157.44 963.108 1156.89 962.92 1156.52 962.544C1156.16 962.168 1155.98 961.624 1155.98 960.912V958.08H1154.84V957.144H1155.98V955.38H1157.19V957.144H1159.01V958.08H1157.19V960.816C1157.19 961.24 1157.28 961.56 1157.46 961.776C1157.64 961.992 1157.94 962.1 1158.35 962.1C1158.47 962.1 1158.59 962.084 1158.71 962.052C1158.83 962.02 1158.96 961.988 1159.08 961.956L1159.27 962.868C1159.15 962.94 1158.98 962.996 1158.77 963.036C1158.56 963.084 1158.36 963.108 1158.17 963.108ZM1163.21 963V957.144H1164.38V958.548H1164.26C1164.39 958.068 1164.62 957.704 1164.95 957.456C1165.28 957.208 1165.73 957.064 1166.28 957.024L1166.67 957L1166.76 958.032L1166.03 958.104C1165.51 958.152 1165.11 958.316 1164.84 958.596C1164.57 958.876 1164.43 959.26 1164.43 959.748V963H1163.21ZM1170.14 963.108C1169.55 963.108 1169.04 962.984 1168.61 962.736C1168.18 962.488 1167.85 962.136 1167.61 961.68C1167.37 961.224 1167.25 960.688 1167.25 960.072C1167.25 959.448 1167.37 958.912 1167.61 958.464C1167.85 958.008 1168.18 957.656 1168.61 957.408C1169.04 957.16 1169.55 957.036 1170.14 957.036C1170.73 957.036 1171.23 957.16 1171.66 957.408C1172.09 957.656 1172.42 958.008 1172.66 958.464C1172.9 958.92 1173.02 959.456 1173.02 960.072C1173.02 960.688 1172.9 961.224 1172.66 961.68C1172.42 962.136 1172.09 962.488 1171.66 962.736C1171.23 962.984 1170.73 963.108 1170.14 963.108ZM1170.13 962.172C1170.64 962.172 1171.04 961.992 1171.34 961.632C1171.65 961.272 1171.8 960.752 1171.8 960.072C1171.8 959.384 1171.65 958.864 1171.34 958.512C1171.04 958.16 1170.64 957.984 1170.13 957.984C1169.64 957.984 1169.24 958.16 1168.93 958.512C1168.63 958.864 1168.48 959.384 1168.48 960.072C1168.48 960.752 1168.63 961.272 1168.93 961.632C1169.24 961.992 1169.64 962.172 1170.13 962.172ZM1175.86 963L1173.63 957.144H1174.88L1176.6 961.98H1176.31L1178.07 957.144H1179.01L1180.74 961.98H1180.47L1182.2 957.144H1183.39L1181.16 963H1180.05L1178.2 958.008H1178.8L1176.97 963H1175.86Z" fill="#FF9500"/>
<g id="18 / information">
<circle id="Ellipse 17" cx="1126" cy="959" r="6" stroke="#FF9500" stroke-width="1.5"/>
<path id="Union" fill-rule="evenodd" clip-rule="evenodd" d="M1126 957.667C1126.46 957.667 1126.83 957.294 1126.83 956.833C1126.83 956.373 1126.46 956 1126 956C1125.54 956 1125.17 956.373 1125.17 956.833C1125.17 957.294 1125.54 957.667 1126 957.667ZM1126.75 959C1126.75 958.586 1126.41 958.25 1126 958.25C1125.59 958.25 1125.25 958.586 1125.25 959V961.333C1125.25 961.748 1125.59 962.083 1126 962.083C1126.41 962.083 1126.75 961.748 1126.75 961.333V959Z" fill="#FF9500"/>
</g>
</g>
<g id="seat row / economy">
<rect width="200" height="40" transform="translate(1113 972)" fill="white"/>
<g id="seat_21">
<g id=".base / economy">
<rect x="1117" y="976" width="22" height="32" rx="4" fill="#FFE8D9"/>
</g>
</g>
<g id="seat_22">
<g id=".base / economy_2">
<rect x="1144" y="976" width="22" height="32" rx="4" fill="#F76641"/>
</g>
</g>
<g id="seat_23">
<g id=".base / economy_3">
<rect x="1171" y="976" width="22" height="32" rx="4" fill="#F76641"/>
</g>
</g>
<g id="row number_6">
<path id="1_6" d="M1213.35 997.126C1212.57 997.126 1211.9 996.939 1211.35 996.566C1210.81 996.183 1210.4 995.633 1210.12 994.914C1209.84 994.195 1209.7 993.327 1209.7 992.31C1209.7 991.171 1209.85 990.21 1210.16 989.426C1210.48 988.633 1210.94 988.031 1211.53 987.62C1212.14 987.209 1212.86 987.004 1213.69 987.004C1214.02 987.004 1214.37 987.055 1214.71 987.158C1215.06 987.251 1215.38 987.387 1215.68 987.564C1215.98 987.741 1216.25 987.951 1216.46 988.194L1216.04 989.09C1215.7 988.726 1215.32 988.46 1214.91 988.292C1214.51 988.115 1214.09 988.026 1213.66 988.026C1213.2 988.026 1212.8 988.11 1212.44 988.278C1212.1 988.446 1211.8 988.703 1211.55 989.048C1211.3 989.384 1211.12 989.809 1211 990.322C1210.88 990.826 1210.82 991.414 1210.82 992.086V993.388H1210.69C1210.75 992.856 1210.9 992.399 1211.15 992.016C1211.42 991.624 1211.75 991.325 1212.15 991.12C1212.55 990.915 1213 990.812 1213.51 990.812C1214.09 990.812 1214.6 990.943 1215.05 991.204C1215.49 991.465 1215.84 991.834 1216.1 992.31C1216.35 992.777 1216.47 993.313 1216.47 993.92C1216.47 994.536 1216.34 995.087 1216.08 995.572C1215.82 996.057 1215.45 996.44 1214.98 996.72C1214.5 996.991 1213.96 997.126 1213.35 997.126ZM1213.27 996.146C1213.68 996.146 1214.04 996.057 1214.36 995.88C1214.68 995.693 1214.93 995.437 1215.1 995.11C1215.28 994.774 1215.37 994.391 1215.37 993.962C1215.37 993.533 1215.28 993.155 1215.1 992.828C1214.93 992.501 1214.68 992.245 1214.36 992.058C1214.05 991.871 1213.69 991.778 1213.27 991.778C1212.86 991.778 1212.49 991.871 1212.18 992.058C1211.86 992.245 1211.61 992.501 1211.43 992.828C1211.26 993.155 1211.17 993.533 1211.17 993.962C1211.17 994.391 1211.26 994.774 1211.43 995.11C1211.61 995.437 1211.86 995.693 1212.18 995.88C1212.49 996.057 1212.86 996.146 1213.27 996.146Z" fill="#FF9500"/>
</g>
<g id="seat_24">
<g id=".base / economy_4">
<rect x="1233" y="976" width="22" height="32" rx="4" fill="#F76641"/>
</g>
</g>
<g id="seat_25">
<g id=".base / economy_5">
<rect x="1260" y="976" width="22" height="32" rx="4" fill="#F76641"/>
</g>
</g>
<g id="seat_26">
<g id=".base / economy_6">
<rect x="1287" y="976" width="22" height="32" rx="4" fill="#F76641"/>
</g>
</g>
</g>
<g id="seat row / economy_2">
<rect width="200" height="40" transform="translate(1113 1016)" fill="white"/>
<g id="seat_27">
<g id=".base / economy_7">
<rect x="1117" y="1020" width="22" height="32" rx="4" fill="#F76641"/>
</g>
</g>
<g id="seat_28">
<g id=".base / economy_8">
<rect x="1144" y="1020" width="22" height="32" rx="4" fill="#F76641"/>
</g>
</g>
<g id="seat_29">
<g id=".base / economy_9">
<rect x="1171" y="1020" width="22" height="32" rx="4" fill="#F76641"/>
</g>
</g>
<g id="row number_7">
<path id="1_7" d="M1210.37 1041L1215.21 1031.62V1032.12H1209.74V1031.13H1216.26V1032L1211.64 1041H1210.37Z" fill="#FF9500"/>
</g>
<g id="seat_30">
<g id=".base / economy_10">
<rect x="1233" y="1020" width="22" height="32" rx="4" fill="#F76641"/>
</g>
</g>
<g id="seat_31">
<g id=".base / economy_11">
<rect x="1260" y="1020" width="22" height="32" rx="4" fill="#F76641"/>
</g>
</g>
<g id="seat_32">
<g id=".base / economy_12">
<rect x="1287" y="1020" width="22" height="32" rx="4" fill="#F76641"/>
</g>
</g>
</g>
<g id="seat row / economy_3">
<rect width="200" height="40" transform="translate(1113 1060)" fill="white"/>
<g id="seat_33">
<g id=".base / economy_13">
<rect x="1117" y="1064" width="22" height="32" rx="4" fill="#F76641"/>
</g>
</g>
<g id="seat_34">
<g id=".base / economy_14">
<rect x="1144" y="1064" width="22" height="32" rx="4" fill="#F76641"/>
</g>
</g>
<g id="seat_35">
<g id=".base / economy_15">
<rect x="1171" y="1064" width="22" height="32" rx="4" fill="#F76641"/>
</g>
</g>
<g id="row number_8">
<path id="1_8" d="M1213 1085.13C1211.89 1085.13 1211.03 1084.89 1210.41 1084.41C1209.8 1083.93 1209.49 1083.25 1209.49 1082.38C1209.49 1081.92 1209.58 1081.52 1209.77 1081.16C1209.96 1080.8 1210.22 1080.51 1210.55 1080.28C1210.89 1080.06 1211.28 1079.92 1211.71 1079.86V1080.07C1211.31 1079.98 1210.96 1079.82 1210.66 1079.6C1210.37 1079.36 1210.13 1079.08 1209.96 1078.74C1209.81 1078.41 1209.73 1078.04 1209.73 1077.64C1209.73 1076.81 1210.02 1076.16 1210.61 1075.7C1211.21 1075.24 1212 1075 1213 1075C1214.01 1075 1214.81 1075.24 1215.4 1075.7C1215.99 1076.16 1216.29 1076.81 1216.29 1077.64C1216.29 1078.04 1216.21 1078.41 1216.04 1078.76C1215.88 1079.09 1215.65 1079.37 1215.35 1079.6C1215.06 1079.82 1214.71 1079.97 1214.3 1080.06V1079.86C1214.74 1079.92 1215.13 1080.06 1215.45 1080.3C1215.79 1080.52 1216.05 1080.81 1216.24 1081.16C1216.42 1081.52 1216.52 1081.92 1216.52 1082.38C1216.52 1083.25 1216.21 1083.93 1215.59 1084.41C1214.98 1084.89 1214.11 1085.13 1213 1085.13ZM1213 1084.17C1213.8 1084.17 1214.39 1084.02 1214.79 1083.71C1215.21 1083.4 1215.41 1082.94 1215.41 1082.31C1215.41 1081.7 1215.21 1081.24 1214.79 1080.94C1214.39 1080.63 1213.8 1080.48 1213 1080.48C1212.22 1080.48 1211.62 1080.63 1211.21 1080.94C1210.8 1081.24 1210.59 1081.7 1210.59 1082.31C1210.59 1082.94 1210.8 1083.4 1211.21 1083.71C1211.62 1084.02 1212.22 1084.17 1213 1084.17ZM1213 1079.53C1213.69 1079.53 1214.23 1079.37 1214.61 1079.05C1215 1078.73 1215.19 1078.29 1215.19 1077.73C1215.19 1077.17 1215 1076.74 1214.61 1076.43C1214.23 1076.11 1213.69 1075.96 1213 1075.96C1212.32 1075.96 1211.79 1076.11 1211.41 1076.43C1211.02 1076.74 1210.83 1077.17 1210.83 1077.73C1210.83 1078.29 1211.02 1078.73 1211.41 1079.05C1211.79 1079.37 1212.32 1079.53 1213 1079.53Z" fill="#FF9500"/>
</g>
<g id="seat_36">
<g id=".base / economy_16">
<rect x="1233" y="1064" width="22" height="32" rx="4" fill="#F76641"/>
</g>
</g>
<g id="seat_37">
<g id=".base / economy_17">
<rect x="1260" y="1064" width="22" height="32" rx="4" fill="#F76641"/>
</g>
</g>
<g id="seat_38">
<g id=".base / economy_18">
<rect x="1287" y="1064" width="22" height="32" rx="4" fill="#F76641"/>
</g>
</g>
</g>
<g id="seat row / economy_4">
<rect width="200" height="40" transform="translate(1113 1104)" fill="white"/>
<g id="seat_39">
<g id=".base / economy_19">
<rect x="1117" y="1108" width="22" height="32" rx="4" fill="#F76641"/>
</g>
</g>
<g id="seat_40">
<g id=".base / economy_20">
<rect x="1144" y="1108" width="22" height="32" rx="4" fill="#F76641"/>
</g>
</g>
<g id="seat_41">
<g id=".base / economy_21">
<rect x="1171" y="1108" width="22" height="32" rx="4" fill="#F76641"/>
</g>
</g>
<g id="row number_9">
<path id="1_9" d="M1212.33 1129.13C1211.99 1129.13 1211.65 1129.08 1211.31 1128.99C1210.96 1128.88 1210.64 1128.74 1210.33 1128.57C1210.03 1128.39 1209.77 1128.18 1209.54 1127.94L1209.98 1127.03C1210.31 1127.39 1210.69 1127.66 1211.1 1127.84C1211.51 1128.02 1211.92 1128.1 1212.34 1128.1C1212.8 1128.1 1213.21 1128.02 1213.56 1127.85C1213.92 1127.68 1214.22 1127.43 1214.46 1127.1C1214.7 1126.75 1214.88 1126.33 1215 1125.82C1215.14 1125.31 1215.2 1124.72 1215.2 1124.04V1122.74H1215.31C1215.26 1123.26 1215.1 1123.72 1214.84 1124.11C1214.58 1124.51 1214.26 1124.8 1213.86 1125.01C1213.46 1125.22 1213 1125.32 1212.5 1125.32C1211.92 1125.32 1211.41 1125.19 1210.96 1124.93C1210.52 1124.66 1210.17 1124.3 1209.91 1123.82C1209.66 1123.34 1209.53 1122.81 1209.53 1122.21C1209.53 1121.58 1209.66 1121.03 1209.92 1120.56C1210.19 1120.07 1210.56 1119.69 1211.03 1119.42C1211.5 1119.14 1212.05 1119 1212.67 1119C1213.44 1119 1214.1 1119.2 1214.64 1119.58C1215.19 1119.95 1215.61 1120.5 1215.89 1121.22C1216.17 1121.93 1216.31 1122.8 1216.31 1123.82C1216.31 1124.95 1216.15 1125.91 1215.83 1126.7C1215.52 1127.5 1215.07 1128.1 1214.47 1128.51C1213.88 1128.92 1213.17 1129.13 1212.33 1129.13ZM1212.75 1124.35C1213.16 1124.35 1213.53 1124.26 1213.84 1124.07C1214.16 1123.89 1214.41 1123.63 1214.58 1123.3C1214.76 1122.98 1214.85 1122.6 1214.85 1122.17C1214.85 1121.73 1214.76 1121.35 1214.58 1121.02C1214.41 1120.69 1214.16 1120.44 1213.84 1120.25C1213.53 1120.06 1213.16 1119.97 1212.75 1119.97C1212.33 1119.97 1211.96 1120.06 1211.64 1120.25C1211.34 1120.44 1211.09 1120.69 1210.9 1121.02C1210.73 1121.35 1210.64 1121.73 1210.64 1122.17C1210.64 1122.6 1210.73 1122.98 1210.9 1123.3C1211.09 1123.63 1211.34 1123.89 1211.64 1124.07C1211.96 1124.26 1212.33 1124.35 1212.75 1124.35Z" fill="#FF9500"/>
</g>
<g id="seat_42">
<g id=".base / economy_22">
<rect x="1233" y="1108" width="22" height="32" rx="4" fill="#F76641"/>
</g>
</g>
<g id="seat_43">
<g id=".base / economy_23">
<rect x="1260" y="1108" width="22" height="32" rx="4" fill="#F76641"/>
</g>
</g>
<g id="seat_44">
<g id=".base / economy_24">
<rect x="1287" y="1108" width="22" height="32" rx="4" fill="#2E9881"/>
<g id="18 / check_2">
<path id="Vector 10_2" d="M1292.73 1123.76L1296.48 1127.51L1304 1120" stroke="#F6F6FE" stroke-width="1.5" stroke-linecap="round" stroke-linejoin="round"/>
</g>
</g>
</g>
</g>
<g id="seat row / economy_5">
<rect width="200" height="40" transform="translate(1113 1148)" fill="white"/>
<g id="seat_45">
<g id=".base / economy_25">
<rect x="1117" y="1152" width="22" height="32" rx="4" fill="#F76641"/>
</g>
</g>
<g id="seat_46">
<g id=".base / economy_26">
<rect x="1144" y="1152" width="22" height="32" rx="4" fill="#F76641"/>
</g>
</g>
<g id="seat_47">
<g id=".base / economy_27">
<rect x="1171" y="1152" width="22" height="32" rx="4" fill="#F76641"/>
</g>
</g>
<g id="row number_10">
<path id="1_10" d="M1206.34 1173V1172.02H1208.6V1164.12H1209.2L1206.82 1165.64L1206.33 1164.78L1208.92 1163.13H1209.74V1172.02H1211.86V1173H1206.34ZM1217.2 1173.13C1216.45 1173.13 1215.82 1172.93 1215.3 1172.55C1214.78 1172.16 1214.4 1171.59 1214.13 1170.83C1213.87 1170.07 1213.74 1169.15 1213.74 1168.06C1213.74 1166.96 1213.87 1166.03 1214.13 1165.29C1214.4 1164.53 1214.78 1163.96 1215.3 1163.58C1215.82 1163.2 1216.45 1163 1217.2 1163C1217.96 1163 1218.59 1163.2 1219.1 1163.58C1219.62 1163.96 1220 1164.53 1220.27 1165.27C1220.53 1166.02 1220.66 1166.94 1220.66 1168.04C1220.66 1169.15 1220.53 1170.07 1220.27 1170.83C1220 1171.59 1219.62 1172.16 1219.1 1172.55C1218.59 1172.93 1217.96 1173.13 1217.2 1173.13ZM1217.2 1172.13C1217.98 1172.13 1218.56 1171.8 1218.94 1171.14C1219.32 1170.48 1219.51 1169.44 1219.51 1168.04C1219.51 1166.64 1219.32 1165.62 1218.95 1164.98C1218.58 1164.32 1217.99 1164 1217.2 1164C1216.43 1164 1215.85 1164.32 1215.46 1164.98C1215.08 1165.63 1214.89 1166.65 1214.89 1168.04C1214.89 1169.44 1215.08 1170.48 1215.45 1171.14C1215.83 1171.8 1216.42 1172.13 1217.2 1172.13Z" fill="#FF9500"/>
</g>
<g id="seat_48">
<g id=".base / economy_28">
<rect x="1233" y="1152" width="22" height="32" rx="4" fill="#F76641"/>
</g>
</g>
<g id="seat_49">
<g id=".base / economy_29">
<rect x="1260" y="1152" width="22" height="32" rx="4" fill="#F76641"/>
</g>
</g>
<g id="seat_50">
<g id=".base / economy_30">
<rect x="1287" y="1152" width="22" height="32" rx="4" fill="#F76641"/>
</g>
</g>
</g>
<g id="seat row / economy_6">
<rect width="200" height="40" transform="translate(1113 1192)" fill="white"/>
<g id="seat_51">
<g id=".base / economy_31">
<rect x="1117" y="1196" width="22" height="32" rx="4" fill="#F76641"/>
</g>
</g>
<g id="seat_52">
<g id=".base / economy_32">
<rect x="1144" y="1196" width="22" height="32" rx="4" fill="#F76641"/>
</g>
</g>
<g id="seat_53">
<g id=".base / economy_33">
<rect x="1171" y="1196" width="22" height="32" rx="4" fill="#F76641"/>
</g>
</g>
<g id="row number_11">
<path id="1_11" d="M1206.34 1217V1216.02H1208.6V1208.12H1209.2L1206.82 1209.64L1206.33 1208.78L1208.92 1207.13H1209.74V1216.02H1211.86V1217H1206.34ZM1214.74 1217V1216.02H1216.99V1208.12H1217.59L1215.21 1209.64L1214.72 1208.78L1217.31 1207.13H1218.14V1216.02H1220.25V1217H1214.74Z" fill="#FF9500"/>
</g>
<g id="seat_54">
<g id=".base / economy_34">
<rect x="1233" y="1196" width="22" height="32" rx="4" fill="#F76641"/>
</g>
</g>
<g id="seat_55">
<g id=".base / economy_35">
<rect x="1260" y="1196" width="22" height="32" rx="4" fill="#F76641"/>
</g>
</g>
<g id="seat_56">
<g id=".base / economy_36">
<rect x="1287" y="1196" width="22" height="32" rx="4" fill="#F76641"/>
</g>
</g>
</g>
<g id="seat row / economy_7">
<rect width="200" height="40" transform="translate(1113 1236)" fill="white"/>
<g id="seat_57">
<g id=".base / economy_37">
<rect x="1117" y="1240" width="22" height="32" rx="4" fill="#F76641"/>
</g>
</g>
<g id="seat_58">
<g id=".base / economy_38">
<rect x="1144" y="1240" width="22" height="32" rx="4" fill="#F76641"/>
</g>
</g>
<g id="seat_59">
<g id=".base / economy_39">
<rect x="1171" y="1240" width="22" height="32" rx="4" fill="#F76641"/>
</g>
</g>
<g id="row number_12">
<path id="1_12" d="M1206.34 1261V1260.02H1208.6V1252.12H1209.2L1206.82 1253.64L1206.33 1252.78L1208.92 1251.13H1209.74V1260.02H1211.86V1261H1206.34ZM1214.26 1261V1260.13L1217.63 1256.49C1217.95 1256.15 1218.21 1255.82 1218.4 1255.53C1218.6 1255.22 1218.74 1254.92 1218.84 1254.63C1218.93 1254.34 1218.98 1254.05 1218.98 1253.75C1218.98 1253.19 1218.81 1252.76 1218.46 1252.47C1218.12 1252.18 1217.63 1252.03 1216.98 1252.03C1216.47 1252.03 1216 1252.12 1215.56 1252.31C1215.13 1252.48 1214.72 1252.76 1214.33 1253.15L1213.9 1252.25C1214.26 1251.88 1214.72 1251.58 1215.28 1251.35C1215.85 1251.12 1216.45 1251 1217.07 1251C1217.74 1251 1218.3 1251.11 1218.75 1251.31C1219.21 1251.52 1219.56 1251.82 1219.79 1252.22C1220.02 1252.61 1220.14 1253.09 1220.14 1253.66C1220.14 1253.96 1220.1 1254.26 1220.03 1254.55C1219.96 1254.83 1219.86 1255.11 1219.71 1255.4C1219.57 1255.68 1219.38 1255.97 1219.16 1256.27C1218.95 1256.57 1218.68 1256.87 1218.38 1257.19L1215.41 1260.34V1260.02H1220.55V1261H1214.26Z" fill="#FF9500"/>
</g>
<g id="seat_60">
<g id=".base / economy_40">
<rect x="1233" y="1240" width="22" height="32" rx="4" fill="#F76641"/>
</g>
</g>
<g id="seat_61">
<g id=".base / economy_41">
<rect x="1260" y="1240" width="22" height="32" rx="4" fill="#F76641"/>
</g>
</g>
<g id="seat_62">
<g id=".base / economy_42">
<rect x="1287" y="1240" width="22" height="32" rx="4" fill="#F76641"/>
</g>
</g>
</g>
<g id="seat row / economy_8">
<rect width="200" height="40" transform="translate(1113 1280)" fill="white"/>
<g id="seat_63">
<g id=".base / economy_43">
<rect x="1117" y="1284" width="22" height="32" rx="4" fill="#F76641"/>
</g>
</g>
<g id="seat_64">
<g id=".base / economy_44">
<rect x="1144" y="1284" width="22" height="32" rx="4" fill="#F76641"/>
</g>
</g>
<g id="seat_65">
<g id=".base / economy_45">
<rect x="1171" y="1284" width="22" height="32" rx="4" fill="#F76641"/>
</g>
</g>
<g id="row number_13">
<path id="1_13" d="M1206.34 1305V1304.02H1208.6V1296.12H1209.2L1206.82 1297.64L1206.33 1296.78L1208.92 1295.13H1209.74V1304.02H1211.86V1305H1206.34ZM1217.09 1305.13C1216.65 1305.13 1216.22 1305.08 1215.81 1304.99C1215.41 1304.89 1215.03 1304.76 1214.68 1304.59C1214.33 1304.42 1214.01 1304.2 1213.74 1303.95L1214.16 1303.04C1214.62 1303.41 1215.08 1303.68 1215.55 1303.85C1216.01 1304.02 1216.52 1304.1 1217.06 1304.1C1217.54 1304.1 1217.94 1304.03 1218.26 1303.89C1218.59 1303.75 1218.84 1303.55 1219.01 1303.28C1219.17 1303 1219.26 1302.66 1219.26 1302.26C1219.26 1301.68 1219.07 1301.24 1218.68 1300.94C1218.3 1300.64 1217.75 1300.49 1217.02 1300.49H1215.56V1299.5H1216.92C1217.35 1299.5 1217.71 1299.42 1218.01 1299.27C1218.32 1299.12 1218.56 1298.91 1218.73 1298.64C1218.89 1298.36 1218.98 1298.03 1218.98 1297.64C1218.98 1297.11 1218.81 1296.72 1218.47 1296.45C1218.14 1296.17 1217.65 1296.03 1217.02 1296.03C1216.5 1296.03 1216.01 1296.12 1215.58 1296.31C1215.14 1296.48 1214.72 1296.76 1214.33 1297.15L1213.91 1296.25C1214.28 1295.86 1214.75 1295.55 1215.31 1295.34C1215.88 1295.12 1216.47 1295 1217.09 1295C1217.72 1295 1218.26 1295.11 1218.71 1295.31C1219.17 1295.51 1219.52 1295.8 1219.76 1296.18C1220 1296.55 1220.13 1297.01 1220.13 1297.54C1220.13 1298.14 1219.96 1298.67 1219.62 1299.11C1219.29 1299.54 1218.83 1299.83 1218.25 1299.99V1299.83C1218.71 1299.91 1219.09 1300.06 1219.41 1300.28C1219.74 1300.51 1219.99 1300.8 1220.15 1301.15C1220.32 1301.5 1220.41 1301.89 1220.41 1302.34C1220.41 1302.91 1220.27 1303.4 1220 1303.82C1219.74 1304.23 1219.36 1304.56 1218.87 1304.79C1218.37 1305.01 1217.78 1305.13 1217.09 1305.13Z" fill="#FF9500"/>
</g>
<g id="seat_66">
<g id=".base / economy_46">
<rect x="1233" y="1284" width="22" height="32" rx="4" fill="#F76641"/>
</g>
</g>
<g id="seat_67">
<g id=".base / economy_47">
<rect x="1260" y="1284" width="22" height="32" rx="4" fill="#F76641"/>
</g>
</g>
<g id="seat_68">
<g id=".base / economy_48">
<rect x="1287" y="1284" width="22" height="32" rx="4" fill="#F76641"/>
</g>
</g>
</g>
<g id="seat row / exit row_2">
<rect width="200" height="18" transform="translate(1113 1324)" fill="white"/>
<path id="Exit row_2" d="M1139.41 1337V1328.54H1144.88V1329.55H1140.61V1332.2H1144.63V1333.21H1140.61V1335.99H1144.88V1337H1139.41ZM1145.56 1337L1148.24 1333.68V1334.28L1145.72 1331.14H1147.13L1148.92 1333.42H1148.49L1150.28 1331.14H1151.69L1149.17 1334.25V1333.71L1151.85 1337H1150.41L1148.49 1334.58H1148.9L1146.99 1337H1145.56ZM1152.64 1329.79V1328.53H1154.06V1329.79H1152.64ZM1152.75 1337V1331.14H1153.96V1337H1152.75ZM1158.17 1337.11C1157.44 1337.11 1156.89 1336.92 1156.52 1336.54C1156.16 1336.17 1155.98 1335.62 1155.98 1334.91V1332.08H1154.84V1331.14H1155.98V1329.38H1157.19V1331.14H1159.01V1332.08H1157.19V1334.82C1157.19 1335.24 1157.28 1335.56 1157.46 1335.78C1157.64 1335.99 1157.94 1336.1 1158.35 1336.1C1158.47 1336.1 1158.59 1336.08 1158.71 1336.05C1158.83 1336.02 1158.96 1335.99 1159.08 1335.96L1159.27 1336.87C1159.15 1336.94 1158.98 1337 1158.77 1337.04C1158.56 1337.08 1158.36 1337.11 1158.17 1337.11ZM1163.21 1337V1331.14H1164.38V1332.55H1164.26C1164.39 1332.07 1164.62 1331.7 1164.95 1331.46C1165.28 1331.21 1165.73 1331.06 1166.28 1331.02L1166.67 1331L1166.76 1332.03L1166.03 1332.1C1165.51 1332.15 1165.11 1332.32 1164.84 1332.6C1164.57 1332.88 1164.43 1333.26 1164.43 1333.75V1337H1163.21ZM1170.14 1337.11C1169.55 1337.11 1169.04 1336.98 1168.61 1336.74C1168.18 1336.49 1167.85 1336.14 1167.61 1335.68C1167.37 1335.22 1167.25 1334.69 1167.25 1334.07C1167.25 1333.45 1167.37 1332.91 1167.61 1332.46C1167.85 1332.01 1168.18 1331.66 1168.61 1331.41C1169.04 1331.16 1169.55 1331.04 1170.14 1331.04C1170.73 1331.04 1171.23 1331.16 1171.66 1331.41C1172.09 1331.66 1172.42 1332.01 1172.66 1332.46C1172.9 1332.92 1173.02 1333.46 1173.02 1334.07C1173.02 1334.69 1172.9 1335.22 1172.66 1335.68C1172.42 1336.14 1172.09 1336.49 1171.66 1336.74C1171.23 1336.98 1170.73 1337.11 1170.14 1337.11ZM1170.13 1336.17C1170.64 1336.17 1171.04 1335.99 1171.34 1335.63C1171.65 1335.27 1171.8 1334.75 1171.8 1334.07C1171.8 1333.38 1171.65 1332.86 1171.34 1332.51C1171.04 1332.16 1170.64 1331.98 1170.13 1331.98C1169.64 1331.98 1169.24 1332.16 1168.93 1332.51C1168.63 1332.86 1168.48 1333.38 1168.48 1334.07C1168.48 1334.75 1168.63 1335.27 1168.93 1335.63C1169.24 1335.99 1169.64 1336.17 1170.13 1336.17ZM1175.86 1337L1173.63 1331.14H1174.88L1176.6 1335.98H1176.31L1178.07 1331.14H1179.01L1180.74 1335.98H1180.47L1182.2 1331.14H1183.39L1181.16 1337H1180.05L1178.2 1332.01H1178.8L1176.97 1337H1175.86Z" fill="#FF9500"/>
<g id="18 / information_2">
<circle id="Ellipse 17_2" cx="1126" cy="1333" r="6" stroke="#FF9500" stroke-width="1.5"/>
<path id="Union_2" fill-rule="evenodd" clip-rule="evenodd" d="M1126 1331.67C1126.46 1331.67 1126.83 1331.29 1126.83 1330.83C1126.83 1330.37 1126.46 1330 1126 1330C1125.54 1330 1125.17 1330.37 1125.17 1330.83C1125.17 1331.29 1125.54 1331.67 1126 1331.67ZM1126.75 1333C1126.75 1332.59 1126.41 1332.25 1126 1332.25C1125.59 1332.25 1125.25 1332.59 1125.25 1333V1335.33C1125.25 1335.75 1125.59 1336.08 1126 1336.08C1126.41 1336.08 1126.75 1335.75 1126.75 1335.33V1333Z" fill="#FF9500"/>
</g>
</g>
<g id="seat row / economy_9">
<rect width="200" height="40" transform="translate(1113 1346)" fill="white"/>
<g id="seat_69">
<g id=".base / economy_49">
<rect x="1117" y="1350" width="22" height="32" rx="4" fill="#F76641"/>
</g>
</g>
<g id="seat_70">
<g id=".base / economy_50">
<rect x="1144" y="1350" width="22" height="32" rx="4" fill="#F76641"/>
</g>
</g>
<g id="seat_71">
<g id=".base / economy_51">
<rect x="1171" y="1350" width="22" height="32" rx="4" fill="#F76641"/>
</g>
</g>
<g id="row number_14">
<path id="1_14" d="M1206.34 1371V1370.02H1208.6V1362.12H1209.2L1206.82 1363.64L1206.33 1362.78L1208.92 1361.13H1209.74V1370.02H1211.86V1371H1206.34ZM1218.28 1371V1368.89H1213.73V1368.02L1218.47 1361.13H1219.44V1367.91H1220.91V1368.89H1219.44V1371H1218.28ZM1218.28 1367.91V1362.52H1218.61L1214.71 1368.21V1367.91H1218.28Z" fill="#FF9500"/>
</g>
<g id="seat_72">
<g id=".base / economy_52">
<rect x="1233" y="1350" width="22" height="32" rx="4" fill="#F76641"/>
</g>
</g>
<g id="seat_73">
<g id=".base / economy_53">
<rect x="1260" y="1350" width="22" height="32" rx="4" fill="#F76641"/>
</g>
</g>
<g id="seat_74">
<g id=".base / economy_54">
<rect x="1287" y="1350" width="22" height="32" rx="4" fill="#F76641"/>
</g>
</g>
</g>
<g id="seat row / economy_10">
<rect width="200" height="40" transform="translate(1113 1390)" fill="white"/>
<g id="seat_75">
<g id=".base / economy_55">
<rect x="1117" y="1394" width="22" height="32" rx="4" fill="#F76641"/>
</g>
</g>
<g id="seat_76">
<g id=".base / economy_56">
<rect x="1144" y="1394" width="22" height="32" rx="4" fill="#F76641"/>
</g>
</g>
<g id="seat_77">
<g id=".base / economy_57">
<rect x="1171" y="1394" width="22" height="32" rx="4" fill="#F76641"/>
</g>
</g>
<g id="row number_15">
<path id="1_15" d="M1206.34 1415V1414.02H1208.6V1406.12H1209.2L1206.82 1407.64L1206.33 1406.78L1208.92 1405.13H1209.74V1414.02H1211.86V1415H1206.34ZM1217.41 1415.13C1216.99 1415.13 1216.58 1415.08 1216.18 1414.99C1215.78 1414.89 1215.4 1414.76 1215.04 1414.58C1214.7 1414.4 1214.39 1414.19 1214.12 1413.95L1214.55 1413.04C1215 1413.4 1215.45 1413.67 1215.91 1413.85C1216.38 1414.02 1216.87 1414.1 1217.4 1414.1C1218.09 1414.1 1218.62 1413.91 1219.01 1413.53C1219.4 1413.15 1219.59 1412.64 1219.59 1412.02C1219.59 1411.37 1219.41 1410.85 1219.03 1410.44C1218.66 1410.03 1218.15 1409.82 1217.49 1409.82C1217.02 1409.82 1216.6 1409.92 1216.23 1410.11C1215.88 1410.3 1215.56 1410.59 1215.27 1411H1214.43V1405.13H1220.15V1406.11H1215.56V1410.04H1215.25C1215.5 1409.65 1215.83 1409.35 1216.26 1409.15C1216.69 1408.93 1217.17 1408.83 1217.7 1408.83C1218.33 1408.83 1218.87 1408.96 1219.31 1409.22C1219.77 1409.48 1220.12 1409.85 1220.36 1410.32C1220.62 1410.79 1220.74 1411.34 1220.74 1411.96C1220.74 1412.58 1220.61 1413.12 1220.34 1413.6C1220.07 1414.08 1219.68 1414.45 1219.19 1414.72C1218.69 1414.99 1218.1 1415.13 1217.41 1415.13Z" fill="#FF9500"/>
</g>
<g id="seat_78">
<g id=".base / economy_58">
<rect x="1233" y="1394" width="22" height="32" rx="4" fill="#F76641"/>
</g>
</g>
<g id="seat_79">
<g id=".base / economy_59">
<rect x="1260" y="1394" width="22" height="32" rx="4" fill="#F76641"/>
</g>
</g>
<g id="seat_80">
<g id=".base / economy_60">
<rect x="1287" y="1394" width="22" height="32" rx="4" fill="#F76641"/>
</g>
</g>
</g>
<g id="seat row / economy_11">
<rect width="200" height="40" transform="translate(1113 1434)" fill="white"/>
<g id="seat_81">
<g id=".base / economy_61">
<rect x="1117" y="1438" width="22" height="32" rx="4" fill="#F76641"/>
</g>
</g>
<g id="seat_82">
<g id=".base / economy_62">
<rect x="1144" y="1438" width="22" height="32" rx="4" fill="#F76641"/>
</g>
</g>
<g id="seat_83">
<g id=".base / economy_63">
<rect x="1171" y="1438" width="22" height="32" rx="4" fill="#F76641"/>
</g>
</g>
<g id="row number_16">
<path id="1_16" d="M1206.34 1459V1458.02H1208.6V1450.12H1209.2L1206.82 1451.64L1206.33 1450.78L1208.92 1449.13H1209.74V1458.02H1211.86V1459H1206.34ZM1217.55 1459.13C1216.77 1459.13 1216.1 1458.94 1215.55 1458.57C1215.01 1458.18 1214.6 1457.63 1214.32 1456.91C1214.04 1456.2 1213.9 1455.33 1213.9 1454.31C1213.9 1453.17 1214.05 1452.21 1214.36 1451.43C1214.68 1450.63 1215.13 1450.03 1215.73 1449.62C1216.34 1449.21 1217.06 1449 1217.89 1449C1218.22 1449 1218.56 1449.06 1218.91 1449.16C1219.25 1449.25 1219.58 1449.39 1219.87 1449.56C1220.18 1449.74 1220.44 1449.95 1220.66 1450.19L1220.24 1451.09C1219.89 1450.73 1219.51 1450.46 1219.1 1450.29C1218.7 1450.11 1218.29 1450.03 1217.86 1450.03C1217.4 1450.03 1216.99 1450.11 1216.64 1450.28C1216.29 1450.45 1216 1450.7 1215.74 1451.05C1215.5 1451.38 1215.32 1451.81 1215.2 1452.32C1215.08 1452.83 1215.02 1453.41 1215.02 1454.09V1455.39H1214.89C1214.95 1454.86 1215.1 1454.4 1215.35 1454.02C1215.61 1453.62 1215.94 1453.33 1216.35 1453.12C1216.75 1452.91 1217.2 1452.81 1217.7 1452.81C1218.28 1452.81 1218.8 1452.94 1219.24 1453.2C1219.69 1453.47 1220.04 1453.83 1220.29 1454.31C1220.55 1454.78 1220.67 1455.31 1220.67 1455.92C1220.67 1456.54 1220.54 1457.09 1220.28 1457.57C1220.02 1458.06 1219.65 1458.44 1219.17 1458.72C1218.7 1458.99 1218.16 1459.13 1217.55 1459.13ZM1217.47 1458.15C1217.88 1458.15 1218.24 1458.06 1218.56 1457.88C1218.88 1457.69 1219.12 1457.44 1219.3 1457.11C1219.48 1456.77 1219.57 1456.39 1219.57 1455.96C1219.57 1455.53 1219.48 1455.15 1219.3 1454.83C1219.12 1454.5 1218.88 1454.24 1218.56 1454.06C1218.25 1453.87 1217.89 1453.78 1217.47 1453.78C1217.06 1453.78 1216.69 1453.87 1216.37 1454.06C1216.06 1454.24 1215.81 1454.5 1215.63 1454.83C1215.45 1455.15 1215.37 1455.53 1215.37 1455.96C1215.37 1456.39 1215.45 1456.77 1215.63 1457.11C1215.81 1457.44 1216.06 1457.69 1216.37 1457.88C1216.69 1458.06 1217.06 1458.15 1217.47 1458.15Z" fill="#FF9500"/>
</g>
<g id="seat_84">
<g id=".base / economy_64">
<rect x="1233" y="1438" width="22" height="32" rx="4" fill="#F76641"/>
</g>
</g>
<g id="seat_85">
<g id=".base / economy_65">
<rect x="1260" y="1438" width="22" height="32" rx="4" fill="#F76641"/>
</g>
</g>
<g id="seat_86">
<g id=".base / economy_66">
<rect x="1287" y="1438" width="22" height="32" rx="4" fill="#F76641"/>
</g>
</g>
</g>
<g id="seat row / economy_12">
<rect width="200" height="40" transform="translate(1113 1478)" fill="white"/>
<g id="seat_87">
<g id=".base / economy_67">
<rect x="1117" y="1482" width="22" height="32" rx="4" fill="#F76641"/>
</g>
</g>
<g id="seat_88">
<g id=".base / economy_68">
<rect x="1144" y="1482" width="22" height="32" rx="4" fill="#F76641"/>
</g>
</g>
<g id="seat_89">
<g id=".base / economy_69">
<rect x="1171" y="1482" width="22" height="32" rx="4" fill="#F76641"/>
</g>
</g>
<g id="row number_17">
<path id="1_17" d="M1206.34 1503V1502.02H1208.6V1494.12H1209.2L1206.82 1495.64L1206.33 1494.78L1208.92 1493.13H1209.74V1502.02H1211.86V1503H1206.34ZM1214.57 1503L1219.41 1493.62V1494.12H1213.94V1493.13H1220.46V1494L1215.84 1503H1214.57Z" fill="#FF9500"/>
</g>
<g id="seat_90">
<g id=".base / economy_70">
<rect x="1233" y="1482" width="22" height="32" rx="4" fill="#F76641"/>
</g>
</g>
<g id="seat_91">
<g id=".base / economy_71">
<rect x="1260" y="1482" width="22" height="32" rx="4" fill="#F76641"/>
</g>
</g>
<g id="seat_92">
<g id=".base / economy_72">
<rect x="1287" y="1482" width="22" height="32" rx="4" fill="#F76641"/>
</g>
</g>
</g>
<g id="seat row / economy_13">
<rect width="200" height="40" transform="translate(1113 1522)" fill="white"/>
<g id="seat_93">
<g id=".base / economy_73">
<rect x="1117" y="1526" width="22" height="32" rx="4" fill="#F76641"/>
</g>
</g>
<g id="seat_94">
<g id=".base / economy_74">
<rect x="1144" y="1526" width="22" height="32" rx="4" fill="#F76641"/>
</g>
</g>
<g id="seat_95">
<g id=".base / economy_75">
<rect x="1171" y="1526" width="22" height="32" rx="4" fill="#F76641"/>
</g>
</g>
<g id="row number_18">
<path id="1_18" d="M1206.34 1547V1546.02H1208.6V1538.12H1209.2L1206.82 1539.64L1206.33 1538.78L1208.92 1537.13H1209.74V1546.02H1211.86V1547H1206.34ZM1217.2 1547.13C1216.09 1547.13 1215.23 1546.89 1214.61 1546.41C1213.99 1545.93 1213.69 1545.25 1213.69 1544.38C1213.69 1543.92 1213.78 1543.52 1213.97 1543.16C1214.15 1542.8 1214.41 1542.51 1214.75 1542.28C1215.09 1542.06 1215.47 1541.92 1215.91 1541.86V1542.07C1215.51 1541.98 1215.16 1541.82 1214.86 1541.6C1214.56 1541.36 1214.33 1541.08 1214.16 1540.74C1214 1540.41 1213.92 1540.04 1213.92 1539.64C1213.92 1538.81 1214.22 1538.16 1214.81 1537.7C1215.4 1537.24 1216.2 1537 1217.2 1537C1218.21 1537 1219.01 1537.24 1219.59 1537.7C1220.19 1538.16 1220.49 1538.81 1220.49 1539.64C1220.49 1540.04 1220.41 1540.41 1220.24 1540.76C1220.08 1541.09 1219.85 1541.37 1219.55 1541.6C1219.25 1541.82 1218.9 1541.97 1218.5 1542.06V1541.86C1218.94 1541.92 1219.32 1542.06 1219.65 1542.3C1219.99 1542.52 1220.25 1542.81 1220.43 1543.16C1220.62 1543.52 1220.71 1543.92 1220.71 1544.38C1220.71 1545.25 1220.41 1545.93 1219.79 1546.41C1219.17 1546.89 1218.31 1547.13 1217.2 1547.13ZM1217.2 1546.17C1217.99 1546.17 1218.59 1546.02 1218.99 1545.71C1219.4 1545.4 1219.61 1544.94 1219.61 1544.31C1219.61 1543.7 1219.4 1543.24 1218.99 1542.94C1218.59 1542.63 1217.99 1542.48 1217.2 1542.48C1216.42 1542.48 1215.82 1542.63 1215.41 1542.94C1215 1543.24 1214.79 1543.7 1214.79 1544.31C1214.79 1544.94 1215 1545.4 1215.41 1545.71C1215.82 1546.02 1216.42 1546.17 1217.2 1546.17ZM1217.2 1541.53C1217.89 1541.53 1218.43 1541.37 1218.81 1541.05C1219.19 1540.73 1219.38 1540.29 1219.38 1539.73C1219.38 1539.17 1219.19 1538.74 1218.81 1538.43C1218.43 1538.11 1217.89 1537.96 1217.2 1537.96C1216.52 1537.96 1215.99 1538.11 1215.6 1538.43C1215.22 1538.74 1215.03 1539.17 1215.03 1539.73C1215.03 1540.29 1215.22 1540.73 1215.6 1541.05C1215.99 1541.37 1216.52 1541.53 1217.2 1541.53Z" fill="#FF9500"/>
</g>
<g id="seat_96">
<g id=".base / economy_76">
<rect x="1233" y="1526" width="22" height="32" rx="4" fill="#F76641"/>
</g>
</g>
<g id="seat_97">
<g id=".base / economy_77">
<rect x="1260" y="1526" width="22" height="32" rx="4" fill="#F76641"/>
</g>
</g>
<g id="seat_98">
<g id=".base / economy_78">
<rect x="1287" y="1526" width="22" height="32" rx="4" fill="#F76641"/>
</g>
</g>
</g>
<g id="seat row / exit row_3">
<rect width="200" height="18" transform="translate(1113 1566)" fill="white"/>
<path id="Exit row_3" d="M1139.41 1579V1570.54H1144.88V1571.55H1140.61V1574.2H1144.63V1575.21H1140.61V1577.99H1144.88V1579H1139.41ZM1145.56 1579L1148.24 1575.68V1576.28L1145.72 1573.14H1147.13L1148.92 1575.42H1148.49L1150.28 1573.14H1151.69L1149.17 1576.25V1575.71L1151.85 1579H1150.41L1148.49 1576.58H1148.9L1146.99 1579H1145.56ZM1152.64 1571.79V1570.53H1154.06V1571.79H1152.64ZM1152.75 1579V1573.14H1153.96V1579H1152.75ZM1158.17 1579.11C1157.44 1579.11 1156.89 1578.92 1156.52 1578.54C1156.16 1578.17 1155.98 1577.62 1155.98 1576.91V1574.08H1154.84V1573.14H1155.98V1571.38H1157.19V1573.14H1159.01V1574.08H1157.19V1576.82C1157.19 1577.24 1157.28 1577.56 1157.46 1577.78C1157.64 1577.99 1157.94 1578.1 1158.35 1578.1C1158.47 1578.1 1158.59 1578.08 1158.71 1578.05C1158.83 1578.02 1158.96 1577.99 1159.08 1577.96L1159.27 1578.87C1159.15 1578.94 1158.98 1579 1158.77 1579.04C1158.56 1579.08 1158.36 1579.11 1158.17 1579.11ZM1163.21 1579V1573.14H1164.38V1574.55H1164.26C1164.39 1574.07 1164.62 1573.7 1164.95 1573.46C1165.28 1573.21 1165.73 1573.06 1166.28 1573.02L1166.67 1573L1166.76 1574.03L1166.03 1574.1C1165.51 1574.15 1165.11 1574.32 1164.84 1574.6C1164.57 1574.88 1164.43 1575.26 1164.43 1575.75V1579H1163.21ZM1170.14 1579.11C1169.55 1579.11 1169.04 1578.98 1168.61 1578.74C1168.18 1578.49 1167.85 1578.14 1167.61 1577.68C1167.37 1577.22 1167.25 1576.69 1167.25 1576.07C1167.25 1575.45 1167.37 1574.91 1167.61 1574.46C1167.85 1574.01 1168.18 1573.66 1168.61 1573.41C1169.04 1573.16 1169.55 1573.04 1170.14 1573.04C1170.73 1573.04 1171.23 1573.16 1171.66 1573.41C1172.09 1573.66 1172.42 1574.01 1172.66 1574.46C1172.9 1574.92 1173.02 1575.46 1173.02 1576.07C1173.02 1576.69 1172.9 1577.22 1172.66 1577.68C1172.42 1578.14 1172.09 1578.49 1171.66 1578.74C1171.23 1578.98 1170.73 1579.11 1170.14 1579.11ZM1170.13 1578.17C1170.64 1578.17 1171.04 1577.99 1171.34 1577.63C1171.65 1577.27 1171.8 1576.75 1171.8 1576.07C1171.8 1575.38 1171.65 1574.86 1171.34 1574.51C1171.04 1574.16 1170.64 1573.98 1170.13 1573.98C1169.64 1573.98 1169.24 1574.16 1168.93 1574.51C1168.63 1574.86 1168.48 1575.38 1168.48 1576.07C1168.48 1576.75 1168.63 1577.27 1168.93 1577.63C1169.24 1577.99 1169.64 1578.17 1170.13 1578.17ZM1175.86 1579L1173.63 1573.14H1174.88L1176.6 1577.98H1176.31L1178.07 1573.14H1179.01L1180.74 1577.98H1180.47L1182.2 1573.14H1183.39L1181.16 1579H1180.05L1178.2 1574.01H1178.8L1176.97 1579H1175.86Z" fill="#FF9500"/>
<g id="18 / information_3">
<circle id="Ellipse 17_3" cx="1126" cy="1575" r="6" stroke="#FF9500" stroke-width="1.5"/>
<path id="Union_3" fill-rule="evenodd" clip-rule="evenodd" d="M1126 1573.67C1126.46 1573.67 1126.83 1573.29 1126.83 1572.83C1126.83 1572.37 1126.46 1572 1126 1572C1125.54 1572 1125.17 1572.37 1125.17 1572.83C1125.17 1573.29 1125.54 1573.67 1126 1573.67ZM1126.75 1575C1126.75 1574.59 1126.41 1574.25 1126 1574.25C1125.59 1574.25 1125.25 1574.59 1125.25 1575V1577.33C1125.25 1577.75 1125.59 1578.08 1126 1578.08C1126.41 1578.08 1126.75 1577.75 1126.75 1577.33V1575Z" fill="#FF9500"/>
</g>
</g>
<g id="seat row / economy_14">
<rect width="200" height="40" transform="translate(1113 1588)" fill="white"/>
<g id="seat_99">
<g id=".base / economy_79">
<rect x="1117" y="1592" width="22" height="32" rx="4" fill="#F76641"/>
</g>
</g>
<g id="seat_100">
<g id=".base / economy_80">
<rect x="1144" y="1592" width="22" height="32" rx="4" fill="#F76641"/>
</g>
</g>
<g id="seat_101">
<g id=".base / economy_81">
<rect x="1171" y="1592" width="22" height="32" rx="4" fill="#F76641"/>
</g>
</g>
<g id="row number_19">
<path id="1_19" d="M1206.34 1613V1612.02H1208.6V1604.12H1209.2L1206.82 1605.64L1206.33 1604.78L1208.92 1603.13H1209.74V1612.02H1211.86V1613H1206.34ZM1216.53 1613.13C1216.19 1613.13 1215.85 1613.08 1215.51 1612.99C1215.16 1612.88 1214.83 1612.74 1214.53 1612.57C1214.23 1612.39 1213.97 1612.18 1213.74 1611.94L1214.18 1611.03C1214.51 1611.39 1214.89 1611.66 1215.3 1611.84C1215.71 1612.02 1216.12 1612.1 1216.54 1612.1C1217 1612.1 1217.41 1612.02 1217.76 1611.85C1218.11 1611.68 1218.41 1611.43 1218.66 1611.1C1218.9 1610.75 1219.08 1610.33 1219.2 1609.82C1219.33 1609.31 1219.4 1608.72 1219.4 1608.04V1606.74H1219.51C1219.45 1607.26 1219.3 1607.72 1219.03 1608.11C1218.78 1608.51 1218.46 1608.8 1218.05 1609.01C1217.65 1609.22 1217.2 1609.32 1216.7 1609.32C1216.12 1609.32 1215.6 1609.19 1215.16 1608.93C1214.72 1608.66 1214.37 1608.3 1214.11 1607.82C1213.85 1607.34 1213.73 1606.81 1213.73 1606.21C1213.73 1605.58 1213.86 1605.03 1214.12 1604.56C1214.39 1604.07 1214.76 1603.69 1215.23 1603.42C1215.7 1603.14 1216.25 1603 1216.86 1603C1217.64 1603 1218.3 1603.2 1218.84 1603.58C1219.39 1603.95 1219.8 1604.5 1220.08 1605.22C1220.36 1605.93 1220.5 1606.8 1220.5 1607.82C1220.5 1608.95 1220.35 1609.91 1220.03 1610.7C1219.72 1611.5 1219.27 1612.1 1218.67 1612.51C1218.08 1612.92 1217.37 1613.13 1216.53 1613.13ZM1216.95 1608.35C1217.36 1608.35 1217.72 1608.26 1218.04 1608.07C1218.36 1607.89 1218.6 1607.63 1218.78 1607.3C1218.96 1606.98 1219.05 1606.6 1219.05 1606.17C1219.05 1605.73 1218.96 1605.35 1218.78 1605.02C1218.6 1604.69 1218.36 1604.44 1218.04 1604.25C1217.72 1604.06 1217.36 1603.97 1216.95 1603.97C1216.53 1603.97 1216.16 1604.06 1215.84 1604.25C1215.53 1604.44 1215.29 1604.69 1215.1 1605.02C1214.92 1605.35 1214.83 1605.73 1214.83 1606.17C1214.83 1606.6 1214.92 1606.98 1215.1 1607.3C1215.29 1607.63 1215.53 1607.89 1215.84 1608.07C1216.16 1608.26 1216.53 1608.35 1216.95 1608.35Z" fill="#FF9500"/>
</g>
<g id="seat_102">
<g id=".base / economy_82">
<rect x="1233" y="1592" width="22" height="32" rx="4" fill="#F76641"/>
</g>
</g>
<g id="seat_103">
<g id=".base / economy_83">
<rect x="1260" y="1592" width="22" height="32" rx="4" fill="#F76641"/>
</g>
</g>
<g id="seat_104">
<g id=".base / economy_84">
<rect x="1287" y="1592" width="22" height="32" rx="4" fill="#F76641"/>
</g>
</g>
</g>
<g id="seat row / economy_15">
<rect width="200" height="40" transform="translate(1113 1632)" fill="white"/>
<g id="seat_105">
<g id=".base / economy_85">
<rect x="1117" y="1636" width="22" height="32" rx="4" fill="#F76641"/>
</g>
</g>
<g id="seat_106">
<g id=".base / economy_86">
<rect x="1144" y="1636" width="22" height="32" rx="4" fill="#F76641"/>
</g>
</g>
<g id="seat_107">
<g id=".base / economy_87">
<rect x="1171" y="1636" width="22" height="32" rx="4" fill="#F76641"/>
</g>
</g>
<g id="row number_20">
<path id="1_20" d="M1205.87 1657V1656.13L1209.24 1652.49C1209.56 1652.15 1209.81 1651.82 1210.01 1651.53C1210.21 1651.22 1210.35 1650.92 1210.44 1650.63C1210.54 1650.34 1210.58 1650.05 1210.58 1649.75C1210.58 1649.19 1210.41 1648.76 1210.07 1648.47C1209.73 1648.18 1209.23 1648.03 1208.58 1648.03C1208.08 1648.03 1207.61 1648.12 1207.17 1648.31C1206.74 1648.48 1206.33 1648.76 1205.94 1649.15L1205.5 1648.25C1205.87 1647.88 1206.33 1647.58 1206.89 1647.35C1207.46 1647.12 1208.05 1647 1208.68 1647C1209.34 1647 1209.9 1647.11 1210.36 1647.31C1210.82 1647.52 1211.16 1647.82 1211.4 1648.22C1211.63 1648.61 1211.75 1649.09 1211.75 1649.66C1211.75 1649.96 1211.71 1650.26 1211.63 1650.55C1211.57 1650.83 1211.46 1651.11 1211.31 1651.4C1211.17 1651.68 1210.99 1651.97 1210.77 1652.27C1210.55 1652.57 1210.29 1652.87 1209.98 1653.19L1207.01 1656.34V1656.02H1212.15V1657H1205.87ZM1217.2 1657.13C1216.45 1657.13 1215.82 1656.93 1215.3 1656.55C1214.78 1656.16 1214.4 1655.59 1214.13 1654.83C1213.87 1654.07 1213.74 1653.15 1213.74 1652.06C1213.74 1650.96 1213.87 1650.03 1214.13 1649.29C1214.4 1648.53 1214.78 1647.96 1215.3 1647.58C1215.82 1647.2 1216.45 1647 1217.2 1647C1217.96 1647 1218.59 1647.2 1219.1 1647.58C1219.62 1647.96 1220 1648.53 1220.27 1649.27C1220.53 1650.02 1220.66 1650.94 1220.66 1652.04C1220.66 1653.15 1220.53 1654.07 1220.27 1654.83C1220 1655.59 1219.62 1656.16 1219.1 1656.55C1218.59 1656.93 1217.96 1657.13 1217.2 1657.13ZM1217.2 1656.13C1217.98 1656.13 1218.56 1655.8 1218.94 1655.14C1219.32 1654.48 1219.51 1653.44 1219.51 1652.04C1219.51 1650.64 1219.32 1649.62 1218.95 1648.98C1218.58 1648.32 1217.99 1648 1217.2 1648C1216.43 1648 1215.85 1648.32 1215.46 1648.98C1215.08 1649.63 1214.89 1650.65 1214.89 1652.04C1214.89 1653.44 1215.08 1654.48 1215.45 1655.14C1215.83 1655.8 1216.42 1656.13 1217.2 1656.13Z" fill="#FF9500"/>
</g>
<g id="seat_108">
<g id=".base / economy_88">
<rect x="1233" y="1636" width="22" height="32" rx="4" fill="#F76641"/>
</g>
</g>
<g id="seat_109">
<g id=".base / economy_89">
<rect x="1260" y="1636" width="22" height="32" rx="4" fill="#F76641"/>
</g>
</g>
<g id="seat_110">
<g id=".base / economy_90">
<rect x="1287" y="1636" width="22" height="32" rx="4" fill="#F76641"/>
</g>
</g>
</g>
<g id="seat row / economy_16">
<rect width="200" height="40" transform="translate(1113 1676)" fill="white"/>
<g id="seat_111">
<g id=".base / economy_91">
<rect x="1117" y="1680" width="22" height="32" rx="4" fill="#F76641"/>
</g>
</g>
<g id="seat_112">
<g id=".base / economy_92">
<rect x="1144" y="1680" width="22" height="32" rx="4" fill="#F76641"/>
</g>
</g>
<g id="seat_113">
<g id=".base / economy_93">
<rect x="1171" y="1680" width="22" height="32" rx="4" fill="#F76641"/>
</g>
</g>
<g id="row number_21">
<path id="1_21" d="M1205.87 1701V1700.13L1209.24 1696.49C1209.56 1696.15 1209.81 1695.82 1210.01 1695.53C1210.21 1695.22 1210.35 1694.92 1210.44 1694.63C1210.54 1694.34 1210.58 1694.05 1210.58 1693.75C1210.58 1693.19 1210.41 1692.76 1210.07 1692.47C1209.73 1692.18 1209.23 1692.03 1208.58 1692.03C1208.08 1692.03 1207.61 1692.12 1207.17 1692.31C1206.74 1692.48 1206.33 1692.76 1205.94 1693.15L1205.5 1692.25C1205.87 1691.88 1206.33 1691.58 1206.89 1691.35C1207.46 1691.12 1208.05 1691 1208.68 1691C1209.34 1691 1209.9 1691.11 1210.36 1691.31C1210.82 1691.52 1211.16 1691.82 1211.4 1692.22C1211.63 1692.61 1211.75 1693.09 1211.75 1693.66C1211.75 1693.96 1211.71 1694.26 1211.63 1694.55C1211.57 1694.83 1211.46 1695.11 1211.31 1695.4C1211.17 1695.68 1210.99 1695.97 1210.77 1696.27C1210.55 1696.57 1210.29 1696.87 1209.98 1697.19L1207.01 1700.34V1700.02H1212.15V1701H1205.87ZM1214.74 1701V1700.02H1216.99V1692.12H1217.59L1215.21 1693.64L1214.72 1692.78L1217.31 1691.13H1218.14V1700.02H1220.25V1701H1214.74Z" fill="#FF9500"/>
</g>
<g id="seat_114">
<g id=".base / economy_94">
<rect x="1233" y="1680" width="22" height="32" rx="4" fill="#F76641"/>
</g>
</g>
<g id="seat_115">
<g id=".base / economy_95">
<rect x="1260" y="1680" width="22" height="32" rx="4" fill="#F76641"/>
</g>
</g>
<g id="seat_116">
<g id=".base / economy_96">
<rect x="1287" y="1680" width="22" height="32" rx="4" fill="#F76641"/>
</g>
</g>
</g>
<g id="seat row / economy_17">
<rect width="200" height="40" transform="translate(1113 1720)" fill="white"/>
<g id="seat_117">
<g id=".base / economy_97">
<rect x="1117" y="1724" width="22" height="32" rx="4" fill="#F76641"/>
</g>
</g>
<g id="seat_118">
<g id=".base / economy_98">
<rect x="1144" y="1724" width="22" height="32" rx="4" fill="#F76641"/>
</g>
</g>
<g id="seat_119">
<g id=".base / economy_99">
<rect x="1171" y="1724" width="22" height="32" rx="4" fill="#F76641"/>
</g>
</g>
<g id="row number_22">
<path id="1_22" d="M1205.87 1745V1744.13L1209.24 1740.49C1209.56 1740.15 1209.81 1739.82 1210.01 1739.53C1210.21 1739.22 1210.35 1738.92 1210.44 1738.63C1210.54 1738.34 1210.58 1738.05 1210.58 1737.75C1210.58 1737.19 1210.41 1736.76 1210.07 1736.47C1209.73 1736.18 1209.23 1736.03 1208.58 1736.03C1208.08 1736.03 1207.61 1736.12 1207.17 1736.31C1206.74 1736.48 1206.33 1736.76 1205.94 1737.15L1205.5 1736.25C1205.87 1735.88 1206.33 1735.58 1206.89 1735.35C1207.46 1735.12 1208.05 1735 1208.68 1735C1209.34 1735 1209.9 1735.11 1210.36 1735.31C1210.82 1735.52 1211.16 1735.82 1211.4 1736.22C1211.63 1736.61 1211.75 1737.09 1211.75 1737.66C1211.75 1737.96 1211.71 1738.26 1211.63 1738.55C1211.57 1738.83 1211.46 1739.11 1211.31 1739.4C1211.17 1739.68 1210.99 1739.97 1210.77 1740.27C1210.55 1740.57 1210.29 1740.87 1209.98 1741.19L1207.01 1744.34V1744.02H1212.15V1745H1205.87ZM1214.26 1745V1744.13L1217.63 1740.49C1217.95 1740.15 1218.21 1739.82 1218.4 1739.53C1218.6 1739.22 1218.74 1738.92 1218.84 1738.63C1218.93 1738.34 1218.98 1738.05 1218.98 1737.75C1218.98 1737.19 1218.81 1736.76 1218.46 1736.47C1218.12 1736.18 1217.63 1736.03 1216.98 1736.03C1216.47 1736.03 1216 1736.12 1215.56 1736.31C1215.13 1736.48 1214.72 1736.76 1214.33 1737.15L1213.9 1736.25C1214.26 1735.88 1214.72 1735.58 1215.28 1735.35C1215.85 1735.12 1216.45 1735 1217.07 1735C1217.74 1735 1218.3 1735.11 1218.75 1735.31C1219.21 1735.52 1219.56 1735.82 1219.79 1736.22C1220.02 1736.61 1220.14 1737.09 1220.14 1737.66C1220.14 1737.96 1220.1 1738.26 1220.03 1738.55C1219.96 1738.83 1219.86 1739.11 1219.71 1739.4C1219.57 1739.68 1219.38 1739.97 1219.16 1740.27C1218.95 1740.57 1218.68 1740.87 1218.38 1741.19L1215.41 1744.34V1744.02H1220.55V1745H1214.26Z" fill="#FF9500"/>
</g>
<g id="seat_120">
<g id=".base / economy_100">
<rect x="1233" y="1724" width="22" height="32" rx="4" fill="#F76641"/>
</g>
</g>
<g id="seat_121">
<g id=".base / economy_101">
<rect x="1260" y="1724" width="22" height="32" rx="4" fill="#F76641"/>
</g>
</g>
<g id="seat_122">
<g id=".base / economy_102">
<rect x="1287" y="1724" width="22" height="32" rx="4" fill="#F76641"/>
</g>
</g>
</g>
<g id="seat row / economy_18">
<rect width="200" height="40" transform="translate(1113 1764)" fill="white"/>
<g id="seat_123">
<g id=".base / economy_103">
<rect x="1117" y="1768" width="22" height="32" rx="4" fill="#F76641"/>
</g>
</g>
<g id="seat_124">
<g id=".base / economy_104">
<rect x="1144" y="1768" width="22" height="32" rx="4" fill="#F76641"/>
</g>
</g>
<g id="seat_125">
<g id=".base / economy_105">
<rect x="1171" y="1768" width="22" height="32" rx="4" fill="#F76641"/>
</g>
</g>
<g id="row number_23">
<path id="1_23" d="M1205.87 1789V1788.13L1209.24 1784.49C1209.56 1784.15 1209.81 1783.82 1210.01 1783.53C1210.21 1783.22 1210.35 1782.92 1210.44 1782.63C1210.54 1782.34 1210.58 1782.05 1210.58 1781.75C1210.58 1781.19 1210.41 1780.76 1210.07 1780.47C1209.73 1780.18 1209.23 1780.03 1208.58 1780.03C1208.08 1780.03 1207.61 1780.12 1207.17 1780.31C1206.74 1780.48 1206.33 1780.76 1205.94 1781.15L1205.5 1780.25C1205.87 1779.88 1206.33 1779.58 1206.89 1779.35C1207.46 1779.12 1208.05 1779 1208.68 1779C1209.34 1779 1209.9 1779.11 1210.36 1779.31C1210.82 1779.52 1211.16 1779.82 1211.4 1780.22C1211.63 1780.61 1211.75 1781.09 1211.75 1781.66C1211.75 1781.96 1211.71 1782.26 1211.63 1782.55C1211.57 1782.83 1211.46 1783.11 1211.31 1783.4C1211.17 1783.68 1210.99 1783.97 1210.77 1784.27C1210.55 1784.57 1210.29 1784.87 1209.98 1785.19L1207.01 1788.34V1788.02H1212.15V1789H1205.87ZM1217.09 1789.13C1216.65 1789.13 1216.22 1789.08 1215.81 1788.99C1215.41 1788.89 1215.03 1788.76 1214.68 1788.59C1214.33 1788.42 1214.01 1788.2 1213.74 1787.95L1214.16 1787.04C1214.62 1787.41 1215.08 1787.68 1215.55 1787.85C1216.01 1788.02 1216.52 1788.1 1217.06 1788.1C1217.54 1788.1 1217.94 1788.03 1218.26 1787.89C1218.59 1787.75 1218.84 1787.55 1219.01 1787.28C1219.17 1787 1219.26 1786.66 1219.26 1786.26C1219.26 1785.68 1219.07 1785.24 1218.68 1784.94C1218.3 1784.64 1217.75 1784.49 1217.02 1784.49H1215.56V1783.5H1216.92C1217.35 1783.5 1217.71 1783.42 1218.01 1783.27C1218.32 1783.12 1218.56 1782.91 1218.73 1782.64C1218.89 1782.36 1218.98 1782.03 1218.98 1781.64C1218.98 1781.11 1218.81 1780.72 1218.47 1780.45C1218.14 1780.17 1217.65 1780.03 1217.02 1780.03C1216.5 1780.03 1216.01 1780.12 1215.58 1780.31C1215.14 1780.48 1214.72 1780.76 1214.33 1781.15L1213.91 1780.25C1214.28 1779.86 1214.75 1779.55 1215.31 1779.34C1215.88 1779.12 1216.47 1779 1217.09 1779C1217.72 1779 1218.26 1779.11 1218.71 1779.31C1219.17 1779.51 1219.52 1779.8 1219.76 1780.18C1220 1780.55 1220.13 1781.01 1220.13 1781.54C1220.13 1782.14 1219.96 1782.67 1219.62 1783.11C1219.29 1783.54 1218.83 1783.83 1218.25 1783.99V1783.83C1218.71 1783.91 1219.09 1784.06 1219.41 1784.28C1219.74 1784.51 1219.99 1784.8 1220.15 1785.15C1220.32 1785.5 1220.41 1785.89 1220.41 1786.34C1220.41 1786.91 1220.27 1787.4 1220 1787.82C1219.74 1788.23 1219.36 1788.56 1218.87 1788.79C1218.37 1789.01 1217.78 1789.13 1217.09 1789.13Z" fill="#FF9500"/>
</g>
<g id="seat_126">
<g id=".base / economy_106">
<rect x="1233" y="1768" width="22" height="32" rx="4" fill="#F76641"/>
</g>
</g>
<g id="seat_127">
<g id=".base / economy_107">
<rect x="1260" y="1768" width="22" height="32" rx="4" fill="#F76641"/>
</g>
</g>
<g id="seat_128">
<g id=".base / economy_108">
<rect x="1287" y="1768" width="22" height="32" rx="4" fill="#F76641"/>
</g>
</g>
</g>
<g id="seat row / economy_19">
<rect width="200" height="40" transform="translate(1113 1808)" fill="white"/>
<g id="seat_129">
<g id=".base / economy_109">
<rect x="1117" y="1812" width="22" height="32" rx="4" fill="#F76641"/>
</g>
</g>
<g id="seat_130">
<g id=".base / economy_110">
<rect x="1144" y="1812" width="22" height="32" rx="4" fill="#F76641"/>
</g>
</g>
<g id="seat_131">
<g id=".base / economy_111">
<rect x="1171" y="1812" width="22" height="32" rx="4" fill="#F76641"/>
</g>
</g>
<g id="row number_24">
<path id="1_24" d="M1205.87 1833V1832.13L1209.24 1828.49C1209.56 1828.15 1209.81 1827.82 1210.01 1827.53C1210.21 1827.22 1210.35 1826.92 1210.44 1826.63C1210.54 1826.34 1210.58 1826.05 1210.58 1825.75C1210.58 1825.19 1210.41 1824.76 1210.07 1824.47C1209.73 1824.18 1209.23 1824.03 1208.58 1824.03C1208.08 1824.03 1207.61 1824.12 1207.17 1824.31C1206.74 1824.48 1206.33 1824.76 1205.94 1825.15L1205.5 1824.25C1205.87 1823.88 1206.33 1823.58 1206.89 1823.35C1207.46 1823.12 1208.05 1823 1208.68 1823C1209.34 1823 1209.9 1823.11 1210.36 1823.31C1210.82 1823.52 1211.16 1823.82 1211.4 1824.22C1211.63 1824.61 1211.75 1825.09 1211.75 1825.66C1211.75 1825.96 1211.71 1826.26 1211.63 1826.55C1211.57 1826.83 1211.46 1827.11 1211.31 1827.4C1211.17 1827.68 1210.99 1827.97 1210.77 1828.27C1210.55 1828.57 1210.29 1828.87 1209.98 1829.19L1207.01 1832.34V1832.02H1212.15V1833H1205.87ZM1218.28 1833V1830.89H1213.73V1830.02L1218.47 1823.13H1219.44V1829.91H1220.91V1830.89H1219.44V1833H1218.28ZM1218.28 1829.91V1824.52H1218.61L1214.71 1830.21V1829.91H1218.28Z" fill="#FF9500"/>
</g>
<g id="seat_132">
<g id=".base / economy_112">
<rect x="1233" y="1812" width="22" height="32" rx="4" fill="#F76641"/>
</g>
</g>
<g id="seat_133">
<g id=".base / economy_113">
<rect x="1260" y="1812" width="22" height="32" rx="4" fill="#F76641"/>
</g>
</g>
<g id="seat_134">
<g id=".base / economy_114">
<rect x="1287" y="1812" width="22" height="32" rx="4" fill="#F76641"/>
</g>
</g>
</g>
<g id="seat row / economy_20">
<rect width="200" height="40" transform="translate(1113 1852)" fill="white"/>
<g id="seat_135">
<g id=".base / economy_115">
<rect x="1117" y="1856" width="22" height="32" rx="4" fill="#F76641"/>
</g>
</g>
<g id="seat_136">
<g id=".base / economy_116">
<rect x="1144" y="1856" width="22" height="32" rx="4" fill="#F76641"/>
</g>
</g>
<g id="seat_137">
<g id=".base / economy_117">
<rect x="1171" y="1856" width="22" height="32" rx="4" fill="#F76641"/>
</g>
</g>
<g id="row number_25">
<path id="1_25" d="M1205.87 1877V1876.13L1209.24 1872.49C1209.56 1872.15 1209.81 1871.82 1210.01 1871.53C1210.21 1871.22 1210.35 1870.92 1210.44 1870.63C1210.54 1870.34 1210.58 1870.05 1210.58 1869.75C1210.58 1869.19 1210.41 1868.76 1210.07 1868.47C1209.73 1868.18 1209.23 1868.03 1208.58 1868.03C1208.08 1868.03 1207.61 1868.12 1207.17 1868.31C1206.74 1868.48 1206.33 1868.76 1205.94 1869.15L1205.5 1868.25C1205.87 1867.88 1206.33 1867.58 1206.89 1867.35C1207.46 1867.12 1208.05 1867 1208.68 1867C1209.34 1867 1209.9 1867.11 1210.36 1867.31C1210.82 1867.52 1211.16 1867.82 1211.4 1868.22C1211.63 1868.61 1211.75 1869.09 1211.75 1869.66C1211.75 1869.96 1211.71 1870.26 1211.63 1870.55C1211.57 1870.83 1211.46 1871.11 1211.31 1871.4C1211.17 1871.68 1210.99 1871.97 1210.77 1872.27C1210.55 1872.57 1210.29 1872.87 1209.98 1873.19L1207.01 1876.34V1876.02H1212.15V1877H1205.87ZM1217.41 1877.13C1216.99 1877.13 1216.58 1877.08 1216.18 1876.99C1215.78 1876.89 1215.4 1876.76 1215.04 1876.58C1214.7 1876.4 1214.39 1876.19 1214.12 1875.95L1214.55 1875.04C1215 1875.4 1215.45 1875.67 1215.91 1875.85C1216.38 1876.02 1216.87 1876.1 1217.4 1876.1C1218.09 1876.1 1218.62 1875.91 1219.01 1875.53C1219.4 1875.15 1219.59 1874.64 1219.59 1874.02C1219.59 1873.37 1219.41 1872.85 1219.03 1872.44C1218.66 1872.03 1218.15 1871.82 1217.49 1871.82C1217.02 1871.82 1216.6 1871.92 1216.23 1872.11C1215.88 1872.3 1215.56 1872.59 1215.27 1873H1214.43V1867.13H1220.15V1868.11H1215.56V1872.04H1215.25C1215.5 1871.65 1215.83 1871.35 1216.26 1871.15C1216.69 1870.93 1217.17 1870.83 1217.7 1870.83C1218.33 1870.83 1218.87 1870.96 1219.31 1871.22C1219.77 1871.48 1220.12 1871.85 1220.36 1872.32C1220.62 1872.79 1220.74 1873.34 1220.74 1873.96C1220.74 1874.58 1220.61 1875.12 1220.34 1875.6C1220.07 1876.08 1219.68 1876.45 1219.19 1876.72C1218.69 1876.99 1218.1 1877.13 1217.41 1877.13Z" fill="#FF9500"/>
</g>
<g id="seat_138">
<g id=".base / economy_118">
<rect x="1233" y="1856" width="22" height="32" rx="4" fill="#F76641"/>
</g>
</g>
<g id="seat_139">
<g id=".base / economy_119">
<rect x="1260" y="1856" width="22" height="32" rx="4" fill="#F76641"/>
</g>
</g>
<g id="seat_140">
<g id=".base / economy_120">
<rect x="1287" y="1856" width="22" height="32" rx="4" fill="#F76641"/>
</g>
</g>
</g>
<g id="seat row / economy_21">
<rect width="200" height="40" transform="translate(1113 1896)" fill="white"/>
<g id="seat_141">
<g id=".base / economy_121">
<rect x="1117" y="1900" width="22" height="32" rx="4" fill="#F76641"/>
</g>
</g>
<g id="seat_142">
<g id=".base / economy_122">
<rect x="1144" y="1900" width="22" height="32" rx="4" fill="#F76641"/>
</g>
</g>
<g id="seat_143">
<g id=".base / economy_123">
<rect x="1171" y="1900" width="22" height="32" rx="4" fill="#F76641"/>
</g>
</g>
<g id="row number_26">
<path id="1_26" d="M1205.87 1921V1920.13L1209.24 1916.49C1209.56 1916.15 1209.81 1915.82 1210.01 1915.53C1210.21 1915.22 1210.35 1914.92 1210.44 1914.63C1210.54 1914.34 1210.58 1914.05 1210.58 1913.75C1210.58 1913.19 1210.41 1912.76 1210.07 1912.47C1209.73 1912.18 1209.23 1912.03 1208.58 1912.03C1208.08 1912.03 1207.61 1912.12 1207.17 1912.31C1206.74 1912.48 1206.33 1912.76 1205.94 1913.15L1205.5 1912.25C1205.87 1911.88 1206.33 1911.58 1206.89 1911.35C1207.46 1911.12 1208.05 1911 1208.68 1911C1209.34 1911 1209.9 1911.11 1210.36 1911.31C1210.82 1911.52 1211.16 1911.82 1211.4 1912.22C1211.63 1912.61 1211.75 1913.09 1211.75 1913.66C1211.75 1913.96 1211.71 1914.26 1211.63 1914.55C1211.57 1914.83 1211.46 1915.11 1211.31 1915.4C1211.17 1915.68 1210.99 1915.97 1210.77 1916.27C1210.55 1916.57 1210.29 1916.87 1209.98 1917.19L1207.01 1920.34V1920.02H1212.15V1921H1205.87ZM1217.55 1921.13C1216.77 1921.13 1216.1 1920.94 1215.55 1920.57C1215.01 1920.18 1214.6 1919.63 1214.32 1918.91C1214.04 1918.2 1213.9 1917.33 1213.9 1916.31C1213.9 1915.17 1214.05 1914.21 1214.36 1913.43C1214.68 1912.63 1215.13 1912.03 1215.73 1911.62C1216.34 1911.21 1217.06 1911 1217.89 1911C1218.22 1911 1218.56 1911.06 1218.91 1911.16C1219.25 1911.25 1219.58 1911.39 1219.87 1911.56C1220.18 1911.74 1220.44 1911.95 1220.66 1912.19L1220.24 1913.09C1219.89 1912.73 1219.51 1912.46 1219.1 1912.29C1218.7 1912.11 1218.29 1912.03 1217.86 1912.03C1217.4 1912.03 1216.99 1912.11 1216.64 1912.28C1216.29 1912.45 1216 1912.7 1215.74 1913.05C1215.5 1913.38 1215.32 1913.81 1215.2 1914.32C1215.08 1914.83 1215.02 1915.41 1215.02 1916.09V1917.39H1214.89C1214.95 1916.86 1215.1 1916.4 1215.35 1916.02C1215.61 1915.62 1215.94 1915.33 1216.35 1915.12C1216.75 1914.91 1217.2 1914.81 1217.7 1914.81C1218.28 1914.81 1218.8 1914.94 1219.24 1915.2C1219.69 1915.47 1220.04 1915.83 1220.29 1916.31C1220.55 1916.78 1220.67 1917.31 1220.67 1917.92C1220.67 1918.54 1220.54 1919.09 1220.28 1919.57C1220.02 1920.06 1219.65 1920.44 1219.17 1920.72C1218.7 1920.99 1218.16 1921.13 1217.55 1921.13ZM1217.47 1920.15C1217.88 1920.15 1218.24 1920.06 1218.56 1919.88C1218.88 1919.69 1219.12 1919.44 1219.3 1919.11C1219.48 1918.77 1219.57 1918.39 1219.57 1917.96C1219.57 1917.53 1219.48 1917.15 1219.3 1916.83C1219.12 1916.5 1218.88 1916.24 1218.56 1916.06C1218.25 1915.87 1217.89 1915.78 1217.47 1915.78C1217.06 1915.78 1216.69 1915.87 1216.37 1916.06C1216.06 1916.24 1215.81 1916.5 1215.63 1916.83C1215.45 1917.15 1215.37 1917.53 1215.37 1917.96C1215.37 1918.39 1215.45 1918.77 1215.63 1919.11C1215.81 1919.44 1216.06 1919.69 1216.37 1919.88C1216.69 1920.06 1217.06 1920.15 1217.47 1920.15Z" fill="#FF9500"/>
</g>
<g id="seat_144">
<g id=".base / economy_124">
<rect x="1233" y="1900" width="22" height="32" rx="4" fill="#F76641"/>
</g>
</g>
<g id="seat_145">
<g id=".base / economy_125">
<rect x="1260" y="1900" width="22" height="32" rx="4" fill="#F76641"/>
</g>
</g>
<g id="seat_146">
<g id=".base / economy_126">
<rect x="1287" y="1900" width="22" height="32" rx="4" fill="#F76641"/>
</g>
</g>
</g>
<g id="seat row / economy_22">
<rect width="200" height="40" transform="translate(1113 1940)" fill="white"/>
<g id="seat_147">
<g id=".base / economy_127">
<rect x="1117" y="1944" width="22" height="32" rx="4" fill="#F76641"/>
</g>
</g>
<g id="seat_148">
<g id=".base / economy_128">
<rect x="1144" y="1944" width="22" height="32" rx="4" fill="#F76641"/>
</g>
</g>
<g id="seat_149">
<g id=".base / economy_129">
<rect x="1171" y="1944" width="22" height="32" rx="4" fill="#F76641"/>
</g>
</g>
<g id="row number_27">
<path id="1_27" d="M1205.87 1965V1964.13L1209.24 1960.49C1209.56 1960.15 1209.81 1959.82 1210.01 1959.53C1210.21 1959.22 1210.35 1958.92 1210.44 1958.63C1210.54 1958.34 1210.58 1958.05 1210.58 1957.75C1210.58 1957.19 1210.41 1956.76 1210.07 1956.47C1209.73 1956.18 1209.23 1956.03 1208.58 1956.03C1208.08 1956.03 1207.61 1956.12 1207.17 1956.31C1206.74 1956.48 1206.33 1956.76 1205.94 1957.15L1205.5 1956.25C1205.87 1955.88 1206.33 1955.58 1206.89 1955.35C1207.46 1955.12 1208.05 1955 1208.68 1955C1209.34 1955 1209.9 1955.11 1210.36 1955.31C1210.82 1955.52 1211.16 1955.82 1211.4 1956.22C1211.63 1956.61 1211.75 1957.09 1211.75 1957.66C1211.75 1957.96 1211.71 1958.26 1211.63 1958.55C1211.57 1958.83 1211.46 1959.11 1211.31 1959.4C1211.17 1959.68 1210.99 1959.97 1210.77 1960.27C1210.55 1960.57 1210.29 1960.87 1209.98 1961.19L1207.01 1964.34V1964.02H1212.15V1965H1205.87ZM1214.57 1965L1219.41 1955.62V1956.12H1213.94V1955.13H1220.46V1956L1215.84 1965H1214.57Z" fill="#FF9500"/>
</g>
<g id="seat_150">
<g id=".base / economy_130">
<rect x="1233" y="1944" width="22" height="32" rx="4" fill="#F76641"/>
</g>
</g>
<g id="seat_151">
<g id=".base / economy_131">
<rect x="1260" y="1944" width="22" height="32" rx="4" fill="#F76641"/>
</g>
</g>
<g id="seat_152">
<g id=".base / economy_132">
<rect x="1287" y="1944" width="22" height="32" rx="4" fill="#F76641"/>
</g>
</g>
</g>
<g id="seat row / economy_23">
<rect width="200" height="40" transform="translate(1113 1984)" fill="white"/>
<g id="seat_153">
<g id=".base / economy_133">
<rect x="1117" y="1988" width="22" height="32" rx="4" fill="#F76641"/>
</g>
</g>
<g id="seat_154">
<g id=".base / economy_134">
<rect x="1144" y="1988" width="22" height="32" rx="4" fill="#F76641"/>
</g>
</g>
<g id="seat_155">
<g id=".base / economy_135">
<rect x="1171" y="1988" width="22" height="32" rx="4" fill="#F76641"/>
</g>
</g>
<g id="row number_28">
<path id="1_28" d="M1205.87 2009V2008.13L1209.24 2004.49C1209.56 2004.15 1209.81 2003.82 1210.01 2003.53C1210.21 2003.22 1210.35 2002.92 1210.44 2002.63C1210.54 2002.34 1210.58 2002.05 1210.58 2001.75C1210.58 2001.19 1210.41 2000.76 1210.07 2000.47C1209.73 2000.18 1209.23 2000.03 1208.58 2000.03C1208.08 2000.03 1207.61 2000.12 1207.17 2000.31C1206.74 2000.48 1206.33 2000.76 1205.94 2001.15L1205.5 2000.25C1205.87 1999.88 1206.33 1999.58 1206.89 1999.35C1207.46 1999.12 1208.05 1999 1208.68 1999C1209.34 1999 1209.9 1999.11 1210.36 1999.31C1210.82 1999.52 1211.16 1999.82 1211.4 2000.22C1211.63 2000.61 1211.75 2001.09 1211.75 2001.66C1211.75 2001.96 1211.71 2002.26 1211.63 2002.55C1211.57 2002.83 1211.46 2003.11 1211.31 2003.4C1211.17 2003.68 1210.99 2003.97 1210.77 2004.27C1210.55 2004.57 1210.29 2004.87 1209.98 2005.19L1207.01 2008.34V2008.02H1212.15V2009H1205.87ZM1217.2 2009.13C1216.09 2009.13 1215.23 2008.89 1214.61 2008.41C1213.99 2007.93 1213.69 2007.25 1213.69 2006.38C1213.69 2005.92 1213.78 2005.52 1213.97 2005.16C1214.15 2004.8 1214.41 2004.51 1214.75 2004.28C1215.09 2004.06 1215.47 2003.92 1215.91 2003.86V2004.07C1215.51 2003.98 1215.16 2003.82 1214.86 2003.6C1214.56 2003.36 1214.33 2003.08 1214.16 2002.74C1214 2002.41 1213.92 2002.04 1213.92 2001.64C1213.92 2000.81 1214.22 2000.16 1214.81 1999.7C1215.4 1999.24 1216.2 1999 1217.2 1999C1218.21 1999 1219.01 1999.24 1219.59 1999.7C1220.19 2000.16 1220.49 2000.81 1220.49 2001.64C1220.49 2002.04 1220.41 2002.41 1220.24 2002.76C1220.08 2003.09 1219.85 2003.37 1219.55 2003.6C1219.25 2003.82 1218.9 2003.97 1218.5 2004.06V2003.86C1218.94 2003.92 1219.32 2004.06 1219.65 2004.3C1219.99 2004.52 1220.25 2004.81 1220.43 2005.16C1220.62 2005.52 1220.71 2005.92 1220.71 2006.38C1220.71 2007.25 1220.41 2007.93 1219.79 2008.41C1219.17 2008.89 1218.31 2009.13 1217.2 2009.13ZM1217.2 2008.17C1217.99 2008.17 1218.59 2008.02 1218.99 2007.71C1219.4 2007.4 1219.61 2006.94 1219.61 2006.31C1219.61 2005.7 1219.4 2005.24 1218.99 2004.94C1218.59 2004.63 1217.99 2004.48 1217.2 2004.48C1216.42 2004.48 1215.82 2004.63 1215.41 2004.94C1215 2005.24 1214.79 2005.7 1214.79 2006.31C1214.79 2006.94 1215 2007.4 1215.41 2007.71C1215.82 2008.02 1216.42 2008.17 1217.2 2008.17ZM1217.2 2003.53C1217.89 2003.53 1218.43 2003.37 1218.81 2003.05C1219.19 2002.73 1219.38 2002.29 1219.38 2001.73C1219.38 2001.17 1219.19 2000.74 1218.81 2000.43C1218.43 2000.11 1217.89 1999.96 1217.2 1999.96C1216.52 1999.96 1215.99 2000.11 1215.6 2000.43C1215.22 2000.74 1215.03 2001.17 1215.03 2001.73C1215.03 2002.29 1215.22 2002.73 1215.6 2003.05C1215.99 2003.37 1216.52 2003.53 1217.2 2003.53Z" fill="#FF9500"/>
</g>
<g id="seat_156">
<g id=".base / economy_136">
<rect x="1233" y="1988" width="22" height="32" rx="4" fill="#F76641"/>
</g>
</g>
<g id="seat_157">
<g id=".base / economy_137">
<rect x="1260" y="1988" width="22" height="32" rx="4" fill="#F76641"/>
</g>
</g>
<g id="seat_158">
<g id=".base / economy_138">
<rect x="1287" y="1988" width="22" height="32" rx="4" fill="#F76641"/>
</g>
</g>
</g>
<g id="seat row / exit row_4">
<rect width="200" height="18" transform="translate(1113 2028)" fill="white"/>
<path id="Exit row_4" d="M1139.41 2041V2032.54H1144.88V2033.55H1140.61V2036.2H1144.63V2037.21H1140.61V2039.99H1144.88V2041H1139.41ZM1145.56 2041L1148.24 2037.68V2038.28L1145.72 2035.14H1147.13L1148.92 2037.42H1148.49L1150.28 2035.14H1151.69L1149.17 2038.25V2037.71L1151.85 2041H1150.41L1148.49 2038.58H1148.9L1146.99 2041H1145.56ZM1152.64 2033.79V2032.53H1154.06V2033.79H1152.64ZM1152.75 2041V2035.14H1153.96V2041H1152.75ZM1158.17 2041.11C1157.44 2041.11 1156.89 2040.92 1156.52 2040.54C1156.16 2040.17 1155.98 2039.62 1155.98 2038.91V2036.08H1154.84V2035.14H1155.98V2033.38H1157.19V2035.14H1159.01V2036.08H1157.19V2038.82C1157.19 2039.24 1157.28 2039.56 1157.46 2039.78C1157.64 2039.99 1157.94 2040.1 1158.35 2040.1C1158.47 2040.1 1158.59 2040.08 1158.71 2040.05C1158.83 2040.02 1158.96 2039.99 1159.08 2039.96L1159.27 2040.87C1159.15 2040.94 1158.98 2041 1158.77 2041.04C1158.56 2041.08 1158.36 2041.11 1158.17 2041.11ZM1163.21 2041V2035.14H1164.38V2036.55H1164.26C1164.39 2036.07 1164.62 2035.7 1164.95 2035.46C1165.28 2035.21 1165.73 2035.06 1166.28 2035.02L1166.67 2035L1166.76 2036.03L1166.03 2036.1C1165.51 2036.15 1165.11 2036.32 1164.84 2036.6C1164.57 2036.88 1164.43 2037.26 1164.43 2037.75V2041H1163.21ZM1170.14 2041.11C1169.55 2041.11 1169.04 2040.98 1168.61 2040.74C1168.18 2040.49 1167.85 2040.14 1167.61 2039.68C1167.37 2039.22 1167.25 2038.69 1167.25 2038.07C1167.25 2037.45 1167.37 2036.91 1167.61 2036.46C1167.85 2036.01 1168.18 2035.66 1168.61 2035.41C1169.04 2035.16 1169.55 2035.04 1170.14 2035.04C1170.73 2035.04 1171.23 2035.16 1171.66 2035.41C1172.09 2035.66 1172.42 2036.01 1172.66 2036.46C1172.9 2036.92 1173.02 2037.46 1173.02 2038.07C1173.02 2038.69 1172.9 2039.22 1172.66 2039.68C1172.42 2040.14 1172.09 2040.49 1171.66 2040.74C1171.23 2040.98 1170.73 2041.11 1170.14 2041.11ZM1170.13 2040.17C1170.64 2040.17 1171.04 2039.99 1171.34 2039.63C1171.65 2039.27 1171.8 2038.75 1171.8 2038.07C1171.8 2037.38 1171.65 2036.86 1171.34 2036.51C1171.04 2036.16 1170.64 2035.98 1170.13 2035.98C1169.64 2035.98 1169.24 2036.16 1168.93 2036.51C1168.63 2036.86 1168.48 2037.38 1168.48 2038.07C1168.48 2038.75 1168.63 2039.27 1168.93 2039.63C1169.24 2039.99 1169.64 2040.17 1170.13 2040.17ZM1175.86 2041L1173.63 2035.14H1174.88L1176.6 2039.98H1176.31L1178.07 2035.14H1179.01L1180.74 2039.98H1180.47L1182.2 2035.14H1183.39L1181.16 2041H1180.05L1178.2 2036.01H1178.8L1176.97 2041H1175.86Z" fill="#FF9500"/>
<g id="18 / information_4">
<circle id="Ellipse 17_4" cx="1126" cy="2037" r="6" stroke="#FF9500" stroke-width="1.5"/>
<path id="Union_4" fill-rule="evenodd" clip-rule="evenodd" d="M1126 2035.67C1126.46 2035.67 1126.83 2035.29 1126.83 2034.83C1126.83 2034.37 1126.46 2034 1126 2034C1125.54 2034 1125.17 2034.37 1125.17 2034.83C1125.17 2035.29 1125.54 2035.67 1126 2035.67ZM1126.75 2037C1126.75 2036.59 1126.41 2036.25 1126 2036.25C1125.59 2036.25 1125.25 2036.59 1125.25 2037V2039.33C1125.25 2039.75 1125.59 2040.08 1126 2040.08C1126.41 2040.08 1126.75 2039.75 1126.75 2039.33V2037Z" fill="#FF9500"/>
</g>
</g>
<g id="seat row / economy_24">
<rect width="200" height="40" transform="translate(1113 2050)" fill="white"/>
<g id="seat_159">
<g id=".base / economy_139">
<rect x="1117" y="2054" width="22" height="32" rx="4" fill="#F76641"/>
</g>
</g>
<g id="seat_160">
<g id=".base / economy_140">
<rect x="1144" y="2054" width="22" height="32" rx="4" fill="#F76641"/>
</g>
</g>
<g id="seat_161">
<g id=".base / economy_141">
<rect x="1171" y="2054" width="22" height="32" rx="4" fill="#F76641"/>
</g>
</g>
<g id="row number_29">
<path id="1_29" d="M1205.87 2075V2074.13L1209.24 2070.49C1209.56 2070.15 1209.81 2069.82 1210.01 2069.53C1210.21 2069.22 1210.35 2068.92 1210.44 2068.63C1210.54 2068.34 1210.58 2068.05 1210.58 2067.75C1210.58 2067.19 1210.41 2066.76 1210.07 2066.47C1209.73 2066.18 1209.23 2066.03 1208.58 2066.03C1208.08 2066.03 1207.61 2066.12 1207.17 2066.31C1206.74 2066.48 1206.33 2066.76 1205.94 2067.15L1205.5 2066.25C1205.87 2065.88 1206.33 2065.58 1206.89 2065.35C1207.46 2065.12 1208.05 2065 1208.68 2065C1209.34 2065 1209.9 2065.11 1210.36 2065.31C1210.82 2065.52 1211.16 2065.82 1211.4 2066.22C1211.63 2066.61 1211.75 2067.09 1211.75 2067.66C1211.75 2067.96 1211.71 2068.26 1211.63 2068.55C1211.57 2068.83 1211.46 2069.11 1211.31 2069.4C1211.17 2069.68 1210.99 2069.97 1210.77 2070.27C1210.55 2070.57 1210.29 2070.87 1209.98 2071.19L1207.01 2074.34V2074.02H1212.15V2075H1205.87ZM1216.53 2075.13C1216.19 2075.13 1215.85 2075.08 1215.51 2074.99C1215.16 2074.88 1214.83 2074.74 1214.53 2074.57C1214.23 2074.39 1213.97 2074.18 1213.74 2073.94L1214.18 2073.03C1214.51 2073.39 1214.89 2073.66 1215.3 2073.84C1215.71 2074.02 1216.12 2074.1 1216.54 2074.1C1217 2074.1 1217.41 2074.02 1217.76 2073.85C1218.11 2073.68 1218.41 2073.43 1218.66 2073.1C1218.9 2072.75 1219.08 2072.33 1219.2 2071.82C1219.33 2071.31 1219.4 2070.72 1219.4 2070.04V2068.74H1219.51C1219.45 2069.26 1219.3 2069.72 1219.03 2070.11C1218.78 2070.51 1218.46 2070.8 1218.05 2071.01C1217.65 2071.22 1217.2 2071.32 1216.7 2071.32C1216.12 2071.32 1215.6 2071.19 1215.16 2070.93C1214.72 2070.66 1214.37 2070.3 1214.11 2069.82C1213.85 2069.34 1213.73 2068.81 1213.73 2068.21C1213.73 2067.58 1213.86 2067.03 1214.12 2066.56C1214.39 2066.07 1214.76 2065.69 1215.23 2065.42C1215.7 2065.14 1216.25 2065 1216.86 2065C1217.64 2065 1218.3 2065.2 1218.84 2065.58C1219.39 2065.95 1219.8 2066.5 1220.08 2067.22C1220.36 2067.93 1220.5 2068.8 1220.5 2069.82C1220.5 2070.95 1220.35 2071.91 1220.03 2072.7C1219.72 2073.5 1219.27 2074.1 1218.67 2074.51C1218.08 2074.92 1217.37 2075.13 1216.53 2075.13ZM1216.95 2070.35C1217.36 2070.35 1217.72 2070.26 1218.04 2070.07C1218.36 2069.89 1218.6 2069.63 1218.78 2069.3C1218.96 2068.98 1219.05 2068.6 1219.05 2068.17C1219.05 2067.73 1218.96 2067.35 1218.78 2067.02C1218.6 2066.69 1218.36 2066.44 1218.04 2066.25C1217.72 2066.06 1217.36 2065.97 1216.95 2065.97C1216.53 2065.97 1216.16 2066.06 1215.84 2066.25C1215.53 2066.44 1215.29 2066.69 1215.1 2067.02C1214.92 2067.35 1214.83 2067.73 1214.83 2068.17C1214.83 2068.6 1214.92 2068.98 1215.1 2069.3C1215.29 2069.63 1215.53 2069.89 1215.84 2070.07C1216.16 2070.26 1216.53 2070.35 1216.95 2070.35Z" fill="#FF9500"/>
</g>
<g id="seat_162">
<g id=".base / economy_142">
<rect x="1233" y="2054" width="22" height="32" rx="4" fill="#F76641"/>
</g>
</g>
<g id="seat_163">
<g id=".base / economy_143">
<rect x="1260" y="2054" width="22" height="32" rx="4" fill="#F76641"/>
</g>
</g>
<g id="seat_164">
<g id=".base / economy_144">
<rect x="1287" y="2054" width="22" height="32" rx="4" fill="#F76641"/>
</g>
</g>
</g>
<g id="seat row / economy_25">
<rect width="200" height="40" transform="translate(1113 2094)" fill="white"/>
<g id="seat_165">
<g id=".base / economy_145">
<rect x="1117" y="2098" width="22" height="32" rx="4" fill="#F76641"/>
</g>
</g>
<g id="seat_166">
<g id=".base / economy_146">
<rect x="1144" y="2098" width="22" height="32" rx="4" fill="#F76641"/>
</g>
</g>
<g id="seat_167">
<g id=".base / economy_147">
<rect x="1171" y="2098" width="22" height="32" rx="4" fill="#F76641"/>
</g>
</g>
<g id="row number_30">
<path id="1_30" d="M1208.69 2119.13C1208.25 2119.13 1207.83 2119.08 1207.42 2118.99C1207.02 2118.89 1206.64 2118.76 1206.29 2118.59C1205.93 2118.42 1205.62 2118.2 1205.35 2117.95L1205.77 2117.04C1206.22 2117.41 1206.69 2117.68 1207.15 2117.85C1207.62 2118.02 1208.12 2118.1 1208.67 2118.1C1209.14 2118.1 1209.54 2118.03 1209.87 2117.89C1210.2 2117.75 1210.44 2117.55 1210.61 2117.28C1210.78 2117 1210.86 2116.66 1210.86 2116.26C1210.86 2115.68 1210.67 2115.24 1210.29 2114.94C1209.91 2114.64 1209.35 2114.49 1208.62 2114.49H1207.17V2113.5H1208.53C1208.95 2113.5 1209.32 2113.42 1209.62 2113.27C1209.93 2113.12 1210.16 2112.91 1210.33 2112.64C1210.5 2112.36 1210.58 2112.03 1210.58 2111.64C1210.58 2111.11 1210.42 2110.72 1210.08 2110.45C1209.74 2110.17 1209.26 2110.03 1208.62 2110.03C1208.1 2110.03 1207.62 2110.12 1207.18 2110.31C1206.74 2110.48 1206.33 2110.76 1205.94 2111.15L1205.52 2110.25C1205.89 2109.86 1206.36 2109.55 1206.92 2109.34C1207.48 2109.12 1208.08 2109 1208.69 2109C1209.33 2109 1209.87 2109.11 1210.32 2109.31C1210.77 2109.51 1211.12 2109.8 1211.37 2110.18C1211.61 2110.55 1211.73 2111.01 1211.73 2111.54C1211.73 2112.14 1211.56 2112.67 1211.23 2113.11C1210.89 2113.54 1210.43 2113.83 1209.86 2113.99V2113.83C1210.31 2113.91 1210.7 2114.06 1211.02 2114.28C1211.34 2114.51 1211.59 2114.8 1211.76 2115.15C1211.93 2115.5 1212.01 2115.89 1212.01 2116.34C1212.01 2116.91 1211.88 2117.4 1211.61 2117.82C1211.34 2118.23 1210.97 2118.56 1210.47 2118.79C1209.98 2119.01 1209.38 2119.13 1208.69 2119.13ZM1217.2 2119.13C1216.45 2119.13 1215.82 2118.93 1215.3 2118.55C1214.78 2118.16 1214.4 2117.59 1214.13 2116.83C1213.87 2116.07 1213.74 2115.15 1213.74 2114.06C1213.74 2112.96 1213.87 2112.03 1214.13 2111.29C1214.4 2110.53 1214.78 2109.96 1215.3 2109.58C1215.82 2109.2 1216.45 2109 1217.2 2109C1217.96 2109 1218.59 2109.2 1219.1 2109.58C1219.62 2109.96 1220 2110.53 1220.27 2111.27C1220.53 2112.02 1220.66 2112.94 1220.66 2114.04C1220.66 2115.15 1220.53 2116.07 1220.27 2116.83C1220 2117.59 1219.62 2118.16 1219.1 2118.55C1218.59 2118.93 1217.96 2119.13 1217.2 2119.13ZM1217.2 2118.13C1217.98 2118.13 1218.56 2117.8 1218.94 2117.14C1219.32 2116.48 1219.51 2115.44 1219.51 2114.04C1219.51 2112.64 1219.32 2111.62 1218.95 2110.98C1218.58 2110.32 1217.99 2110 1217.2 2110C1216.43 2110 1215.85 2110.32 1215.46 2110.98C1215.08 2111.63 1214.89 2112.65 1214.89 2114.04C1214.89 2115.44 1215.08 2116.48 1215.45 2117.14C1215.83 2117.8 1216.42 2118.13 1217.2 2118.13Z" fill="#FF9500"/>
</g>
<g id="seat_168">
<g id=".base / economy_148">
<rect x="1233" y="2098" width="22" height="32" rx="4" fill="#F76641"/>
</g>
</g>
<g id="seat_169">
<g id=".base / economy_149">
<rect x="1260" y="2098" width="22" height="32" rx="4" fill="#F76641"/>
</g>
</g>
<g id="seat_170">
<g id=".base / economy_150">
<rect x="1287" y="2098" width="22" height="32" rx="4" fill="#F76641"/>
</g>
</g>
</g>
<g id="seat row / economy_26">
<rect width="200" height="40" transform="translate(1113 2138)" fill="white"/>
<g id="seat_171">
<g id=".base / economy_151">
<rect x="1117" y="2142" width="22" height="32" rx="4" fill="#F76641"/>
</g>
</g>
<g id="seat_172">
<g id=".base / economy_152">
<rect x="1144" y="2142" width="22" height="32" rx="4" fill="#F76641"/>
</g>
</g>
<g id="seat_173">
<g id=".base / economy_153">
<rect x="1171" y="2142" width="22" height="32" rx="4" fill="#F76641"/>
</g>
</g>
<g id="row number_31">
<path id="1_31" d="M1208.69 2163.13C1208.25 2163.13 1207.83 2163.08 1207.42 2162.99C1207.02 2162.89 1206.64 2162.76 1206.29 2162.59C1205.93 2162.42 1205.62 2162.2 1205.35 2161.95L1205.77 2161.04C1206.22 2161.41 1206.69 2161.68 1207.15 2161.85C1207.62 2162.02 1208.12 2162.1 1208.67 2162.1C1209.14 2162.1 1209.54 2162.03 1209.87 2161.89C1210.2 2161.75 1210.44 2161.55 1210.61 2161.28C1210.78 2161 1210.86 2160.66 1210.86 2160.26C1210.86 2159.68 1210.67 2159.24 1210.29 2158.94C1209.91 2158.64 1209.35 2158.49 1208.62 2158.49H1207.17V2157.5H1208.53C1208.95 2157.5 1209.32 2157.42 1209.62 2157.27C1209.93 2157.12 1210.16 2156.91 1210.33 2156.64C1210.5 2156.36 1210.58 2156.03 1210.58 2155.64C1210.58 2155.11 1210.42 2154.72 1210.08 2154.45C1209.74 2154.17 1209.26 2154.03 1208.62 2154.03C1208.1 2154.03 1207.62 2154.12 1207.18 2154.31C1206.74 2154.48 1206.33 2154.76 1205.94 2155.15L1205.52 2154.25C1205.89 2153.86 1206.36 2153.55 1206.92 2153.34C1207.48 2153.12 1208.08 2153 1208.69 2153C1209.33 2153 1209.87 2153.11 1210.32 2153.31C1210.77 2153.51 1211.12 2153.8 1211.37 2154.18C1211.61 2154.55 1211.73 2155.01 1211.73 2155.54C1211.73 2156.14 1211.56 2156.67 1211.23 2157.11C1210.89 2157.54 1210.43 2157.83 1209.86 2157.99V2157.83C1210.31 2157.91 1210.7 2158.06 1211.02 2158.28C1211.34 2158.51 1211.59 2158.8 1211.76 2159.15C1211.93 2159.5 1212.01 2159.89 1212.01 2160.34C1212.01 2160.91 1211.88 2161.4 1211.61 2161.82C1211.34 2162.23 1210.97 2162.56 1210.47 2162.79C1209.98 2163.01 1209.38 2163.13 1208.69 2163.13ZM1214.74 2163V2162.02H1216.99V2154.12H1217.59L1215.21 2155.64L1214.72 2154.78L1217.31 2153.13H1218.14V2162.02H1220.25V2163H1214.74Z" fill="#FF9500"/>
</g>
<g id="seat_174">
<g id=".base / economy_154">
<rect x="1233" y="2142" width="22" height="32" rx="4" fill="#F76641"/>
</g>
</g>
<g id="seat_175">
<g id=".base / economy_155">
<rect x="1260" y="2142" width="22" height="32" rx="4" fill="#F76641"/>
</g>
</g>
<g id="seat_176">
<g id=".base / economy_156">
<rect x="1287" y="2142" width="22" height="32" rx="4" fill="#F76641"/>
</g>
</g>
</g>
<g id="seat row / economy_27">
<rect width="200" height="40" transform="translate(1113 2182)" fill="white"/>
<g id="seat_177">
<g id=".base / economy_157">
<rect x="1117" y="2186" width="22" height="32" rx="4" fill="#F76641"/>
</g>
</g>
<g id="seat_178">
<g id=".base / economy_158">
<rect x="1144" y="2186" width="22" height="32" rx="4" fill="#F76641"/>
</g>
</g>
<g id="seat_179">
<g id=".base / economy_159">
<rect x="1171" y="2186" width="22" height="32" rx="4" fill="#F76641"/>
</g>
</g>
<g id="row number_32">
<path id="1_32" d="M1208.69 2207.13C1208.25 2207.13 1207.83 2207.08 1207.42 2206.99C1207.02 2206.89 1206.64 2206.76 1206.29 2206.59C1205.93 2206.42 1205.62 2206.2 1205.35 2205.95L1205.77 2205.04C1206.22 2205.41 1206.69 2205.68 1207.15 2205.85C1207.62 2206.02 1208.12 2206.1 1208.67 2206.1C1209.14 2206.1 1209.54 2206.03 1209.87 2205.89C1210.2 2205.75 1210.44 2205.55 1210.61 2205.28C1210.78 2205 1210.86 2204.66 1210.86 2204.26C1210.86 2203.68 1210.67 2203.24 1210.29 2202.94C1209.91 2202.64 1209.35 2202.49 1208.62 2202.49H1207.17V2201.5H1208.53C1208.95 2201.5 1209.32 2201.42 1209.62 2201.27C1209.93 2201.12 1210.16 2200.91 1210.33 2200.64C1210.5 2200.36 1210.58 2200.03 1210.58 2199.64C1210.58 2199.11 1210.42 2198.72 1210.08 2198.45C1209.74 2198.17 1209.26 2198.03 1208.62 2198.03C1208.1 2198.03 1207.62 2198.12 1207.18 2198.31C1206.74 2198.48 1206.33 2198.76 1205.94 2199.15L1205.52 2198.25C1205.89 2197.86 1206.36 2197.55 1206.92 2197.34C1207.48 2197.12 1208.08 2197 1208.69 2197C1209.33 2197 1209.87 2197.11 1210.32 2197.31C1210.77 2197.51 1211.12 2197.8 1211.37 2198.18C1211.61 2198.55 1211.73 2199.01 1211.73 2199.54C1211.73 2200.14 1211.56 2200.67 1211.23 2201.11C1210.89 2201.54 1210.43 2201.83 1209.86 2201.99V2201.83C1210.31 2201.91 1210.7 2202.06 1211.02 2202.28C1211.34 2202.51 1211.59 2202.8 1211.76 2203.15C1211.93 2203.5 1212.01 2203.89 1212.01 2204.34C1212.01 2204.91 1211.88 2205.4 1211.61 2205.82C1211.34 2206.23 1210.97 2206.56 1210.47 2206.79C1209.98 2207.01 1209.38 2207.13 1208.69 2207.13ZM1214.26 2207V2206.13L1217.63 2202.49C1217.95 2202.15 1218.21 2201.82 1218.4 2201.53C1218.6 2201.22 1218.74 2200.92 1218.84 2200.63C1218.93 2200.34 1218.98 2200.05 1218.98 2199.75C1218.98 2199.19 1218.81 2198.76 1218.46 2198.47C1218.12 2198.18 1217.63 2198.03 1216.98 2198.03C1216.47 2198.03 1216 2198.12 1215.56 2198.31C1215.13 2198.48 1214.72 2198.76 1214.33 2199.15L1213.9 2198.25C1214.26 2197.88 1214.72 2197.58 1215.28 2197.35C1215.85 2197.12 1216.45 2197 1217.07 2197C1217.74 2197 1218.3 2197.11 1218.75 2197.31C1219.21 2197.52 1219.56 2197.82 1219.79 2198.22C1220.02 2198.61 1220.14 2199.09 1220.14 2199.66C1220.14 2199.96 1220.1 2200.26 1220.03 2200.55C1219.96 2200.83 1219.86 2201.11 1219.71 2201.4C1219.57 2201.68 1219.38 2201.97 1219.16 2202.27C1218.95 2202.57 1218.68 2202.87 1218.38 2203.19L1215.41 2206.34V2206.02H1220.55V2207H1214.26Z" fill="#FF9500"/>
</g>
<g id="seat_180">
<g id=".base / economy_160">
<rect x="1233" y="2186" width="22" height="32" rx="4" fill="#F76641"/>
</g>
</g>
<g id="seat_181">
<g id=".base / economy_161">
<rect x="1260" y="2186" width="22" height="32" rx="4" fill="#F76641"/>
</g>
</g>
<g id="seat_182">
<g id=".base / economy_162">
<rect x="1287" y="2186" width="22" height="32" rx="4" fill="#F76641"/>
</g>
</g>
</g>
<g id="seat row / economy_28">
<rect width="200" height="40" transform="translate(1113 2226)" fill="white"/>
<g id="seat_183">
<g id=".base / economy_163">
<rect x="1117" y="2230" width="22" height="32" rx="4" fill="#F76641"/>
</g>
</g>
<g id="seat_184">
<g id=".base / economy_164">
<rect x="1144" y="2230" width="22" height="32" rx="4" fill="#F76641"/>
</g>
</g>
<g id="seat_185">
<g id=".base / economy_165">
<rect x="1171" y="2230" width="22" height="32" rx="4" fill="#F76641"/>
</g>
</g>
<g id="row number_33">
<path id="1_33" d="M1208.69 2251.13C1208.25 2251.13 1207.83 2251.08 1207.42 2250.99C1207.02 2250.89 1206.64 2250.76 1206.29 2250.59C1205.93 2250.42 1205.62 2250.2 1205.35 2249.95L1205.77 2249.04C1206.22 2249.41 1206.69 2249.68 1207.15 2249.85C1207.62 2250.02 1208.12 2250.1 1208.67 2250.1C1209.14 2250.1 1209.54 2250.03 1209.87 2249.89C1210.2 2249.75 1210.44 2249.55 1210.61 2249.28C1210.78 2249 1210.86 2248.66 1210.86 2248.26C1210.86 2247.68 1210.67 2247.24 1210.29 2246.94C1209.91 2246.64 1209.35 2246.49 1208.62 2246.49H1207.17V2245.5H1208.53C1208.95 2245.5 1209.32 2245.42 1209.62 2245.27C1209.93 2245.12 1210.16 2244.91 1210.33 2244.64C1210.5 2244.36 1210.58 2244.03 1210.58 2243.64C1210.58 2243.11 1210.42 2242.72 1210.08 2242.45C1209.74 2242.17 1209.26 2242.03 1208.62 2242.03C1208.1 2242.03 1207.62 2242.12 1207.18 2242.31C1206.74 2242.48 1206.33 2242.76 1205.94 2243.15L1205.52 2242.25C1205.89 2241.86 1206.36 2241.55 1206.92 2241.34C1207.48 2241.12 1208.08 2241 1208.69 2241C1209.33 2241 1209.87 2241.11 1210.32 2241.31C1210.77 2241.51 1211.12 2241.8 1211.37 2242.18C1211.61 2242.55 1211.73 2243.01 1211.73 2243.54C1211.73 2244.14 1211.56 2244.67 1211.23 2245.11C1210.89 2245.54 1210.43 2245.83 1209.86 2245.99V2245.83C1210.31 2245.91 1210.7 2246.06 1211.02 2246.28C1211.34 2246.51 1211.59 2246.8 1211.76 2247.15C1211.93 2247.5 1212.01 2247.89 1212.01 2248.34C1212.01 2248.91 1211.88 2249.4 1211.61 2249.82C1211.34 2250.23 1210.97 2250.56 1210.47 2250.79C1209.98 2251.01 1209.38 2251.13 1208.69 2251.13ZM1217.09 2251.13C1216.65 2251.13 1216.22 2251.08 1215.81 2250.99C1215.41 2250.89 1215.03 2250.76 1214.68 2250.59C1214.33 2250.42 1214.01 2250.2 1213.74 2249.95L1214.16 2249.04C1214.62 2249.41 1215.08 2249.68 1215.55 2249.85C1216.01 2250.02 1216.52 2250.1 1217.06 2250.1C1217.54 2250.1 1217.94 2250.03 1218.26 2249.89C1218.59 2249.75 1218.84 2249.55 1219.01 2249.28C1219.17 2249 1219.26 2248.66 1219.26 2248.26C1219.26 2247.68 1219.07 2247.24 1218.68 2246.94C1218.3 2246.64 1217.75 2246.49 1217.02 2246.49H1215.56V2245.5H1216.92C1217.35 2245.5 1217.71 2245.42 1218.01 2245.27C1218.32 2245.12 1218.56 2244.91 1218.73 2244.64C1218.89 2244.36 1218.98 2244.03 1218.98 2243.64C1218.98 2243.11 1218.81 2242.72 1218.47 2242.45C1218.14 2242.17 1217.65 2242.03 1217.02 2242.03C1216.5 2242.03 1216.01 2242.12 1215.58 2242.31C1215.14 2242.48 1214.72 2242.76 1214.33 2243.15L1213.91 2242.25C1214.28 2241.86 1214.75 2241.55 1215.31 2241.34C1215.88 2241.12 1216.47 2241 1217.09 2241C1217.72 2241 1218.26 2241.11 1218.71 2241.31C1219.17 2241.51 1219.52 2241.8 1219.76 2242.18C1220 2242.55 1220.13 2243.01 1220.13 2243.54C1220.13 2244.14 1219.96 2244.67 1219.62 2245.11C1219.29 2245.54 1218.83 2245.83 1218.25 2245.99V2245.83C1218.71 2245.91 1219.09 2246.06 1219.41 2246.28C1219.74 2246.51 1219.99 2246.8 1220.15 2247.15C1220.32 2247.5 1220.41 2247.89 1220.41 2248.34C1220.41 2248.91 1220.27 2249.4 1220 2249.82C1219.74 2250.23 1219.36 2250.56 1218.87 2250.79C1218.37 2251.01 1217.78 2251.13 1217.09 2251.13Z" fill="#FF9500"/>
</g>
<g id="seat_186">
<g id=".base / economy_166">
<rect x="1233" y="2230" width="22" height="32" rx="4" fill="#F76641"/>
</g>
</g>
<g id="seat_187">
<g id=".base / economy_167">
<rect x="1260" y="2230" width="22" height="32" rx="4" fill="#F76641"/>
</g>
</g>
<g id="seat_188">
<g id=".base / economy_168">
<rect x="1287" y="2230" width="22" height="32" rx="4" fill="#F76641"/>
</g>
</g>
</g>
</g>
</g>
<defs>
<linearGradient id="paint0_linear_2261_2619" x1="151" y1="1312" x2="2275" y2="1312" gradientUnits="userSpaceOnUse">
<stop offset="0.28" stop-color="#FF8600"/>
<stop offset="0.489583" stop-color="#FFAB4D"/>
<stop offset="0.72" stop-color="#FFDAB1"/>
</linearGradient>
</defs>
</svg>
