<svg width="2426" height="2965" viewBox="0 0 2426 2965" fill="none" xmlns="http://www.w3.org/2000/svg">
<g id="Plane (seat selection)">
<path id="Rectangle 9" d="M1181.84 2666.02L762.645 2779.88C759.951 2766.37 759.639 2755.88 760.346 2748.26C761.054 2740.62 762.78 2735.89 764.12 2733.86L1135.08 2487.92L1135.38 2487.72L1135.28 2487.37L1119.31 2426.77C1118.76 2424.68 1118.26 2422.66 1117.79 2420.56C1112.88 2398.45 1083.5 2262.57 1083.5 2171.5V1667.5V1667H1083H904.87C894.874 1667 885.088 1668.44 875.531 1671.38C647.042 1741.53 217.903 1873.65 157.849 1893.57C155.116 1894.48 152.392 1892.59 152.142 1889.68C146.5 1824.11 179.424 1785.66 197.053 1774.43C197.057 1774.43 197.062 1774.42 197.066 1774.42L979.613 1347.83L979.638 1347.82L979.66 1347.8L1039.21 1306.25C1047.18 1300.69 1054.3 1294.01 1060.35 1286.4L1084.1 1256.54C1085.58 1254.69 1086.38 1252.38 1086.38 1250.01V1184V632.025C1086.38 620.724 1087.34 609.457 1089.3 598.329C1096.03 560.253 1113.17 465.485 1128.49 400.114C1138.74 356.36 1151.61 302.634 1166.1 259.848C1173.35 238.452 1180.99 219.82 1188.9 206.545C1192.85 199.907 1196.86 194.632 1200.9 191.022C1204.94 187.412 1208.98 185.5 1213 185.5C1217.02 185.5 1221.08 187.427 1225.16 191.064C1229.24 194.7 1233.3 200.01 1237.31 206.687C1245.34 220.04 1253.12 238.766 1260.46 260.224C1275.14 303.133 1288.01 356.86 1297.51 400.107C1311.81 465.194 1329.31 558.914 1336.41 597.488C1338.56 609.187 1339.62 621.029 1339.62 632.926V1184V1250.01C1339.62 1252.38 1340.42 1254.69 1341.9 1256.54L1365.65 1286.4C1371.7 1294.01 1378.82 1300.69 1386.79 1306.25L1446.34 1347.8L1446.36 1347.82L1446.39 1347.83L2228.93 1774.42C2228.94 1774.42 2228.94 1774.43 2228.95 1774.43C2246.58 1785.66 2279.5 1824.11 2273.86 1889.68C2273.61 1892.59 2270.88 1894.48 2268.15 1893.57C2208.1 1873.65 1778.96 1741.53 1550.47 1671.38C1540.91 1668.44 1531.13 1667 1521.13 1667H1343H1342.5V1667.5V2171.5C1342.5 2262.57 1313.12 2398.45 1308.21 2420.56C1307.74 2422.66 1307.24 2424.68 1306.69 2426.77L1290.72 2487.37L1290.62 2487.72L1290.92 2487.92L1660.4 2733.86C1661.74 2735.89 1663.47 2740.62 1664.18 2748.26C1664.88 2755.88 1664.57 2766.37 1661.88 2779.88L1244.16 2666.02L1243.67 2665.89L1243.54 2666.37L1240.02 2679.74L1240.02 2679.75L1240.02 2679.75L1240.01 2679.77L1239.99 2679.84C1239.97 2679.91 1239.94 2680.01 1239.91 2680.14C1239.83 2680.4 1239.72 2680.79 1239.57 2681.28C1239.27 2682.26 1238.82 2683.67 1238.22 2685.35C1237.04 2688.73 1235.27 2693.22 1232.95 2697.71C1230.64 2702.2 1227.78 2706.67 1224.42 2710C1221.07 2713.34 1217.25 2715.5 1213 2715.5C1208.75 2715.5 1204.93 2713.34 1201.58 2710C1198.22 2706.67 1195.36 2702.2 1193.05 2697.71C1190.73 2693.22 1188.96 2688.73 1187.78 2685.35C1187.18 2683.67 1186.73 2682.26 1186.43 2681.28C1186.28 2680.79 1186.17 2680.4 1186.09 2680.14C1186.06 2680.01 1186.03 2679.91 1186.01 2679.84L1185.99 2679.77L1185.98 2679.75L1185.98 2679.75L1185.98 2679.75L1182.46 2666.37L1182.33 2665.89L1181.84 2666.02Z" fill="url(#paint0_linear_2261_2619)" stroke="#FF9A2A"/>
<path id="Vector 17" opacity="0.4" d="M1138.39 439.743L1150.67 412.724C1153.92 405.584 1161.04 401 1168.88 401H1205.5C1207.71 401 1209.5 402.791 1209.5 405V435.513C1209.5 437.722 1207.71 439.507 1205.5 439.564C1193.17 439.883 1185.74 441.646 1172.75 443C1165.57 443.748 1161.68 444.224 1154.38 445C1150.56 445.405 1145.58 445.378 1141.77 445.264C1138.98 445.181 1137.23 442.286 1138.39 439.743Z" fill="white" fill-opacity="0.6" stroke="#7C8DB0" stroke-opacity="0.2"/>
<path id="Vector 18" opacity="0.4" d="M1288.11 439.743L1275.83 412.724C1272.58 405.584 1265.46 401 1257.62 401H1221C1218.79 401 1217 402.791 1217 405V435.513C1217 437.722 1218.79 439.507 1221 439.564C1233.33 439.883 1240.76 441.646 1253.75 443C1260.93 443.748 1264.82 444.224 1272.12 445C1275.94 445.405 1280.92 445.378 1284.73 445.264C1287.52 445.181 1289.27 442.286 1288.11 439.743Z" fill="white" fill-opacity="0.6" stroke="#7C8DB0" stroke-opacity="0.2"/>
<path id="Rectangle 15" d="M1104 618C1104 618 1104 615.5 1128.41 488C1134.29 457.278 1181.58 458 1213 458C1244.42 458 1291.71 457.278 1297.59 488C1322 615.5 1322 618 1322 618V2270C1322 2270 1322 2270 1307.59 2330.25C1300.31 2360.71 1213 2360.5 1213 2360.5C1213 2360.5 1125.69 2360.71 1118.41 2330.25C1104 2270 1104 2270 1104 2270V618Z" fill="white" fill-opacity="0.6" stroke="#7C8DB0" stroke-opacity="0.2"/>

<g id="business">
<rect x="1113" y="617" width="200" height="312" rx="8" fill="white"/>

<g id="seat row / business">
<rect width="200" height="48" transform="translate(1113 629)" fill="white"/>

<g id="seat">
<g id=".base / business">
<rect x="1121" y="633" width="30" height="40" rx="4" fill="#FFDAD9"/>
</g>
</g>

<g id="seat_2">
<g id=".base / business_2">
<rect x="1159.5" y="633" width="30" height="40" rx="4" fill="#E15454"/>
</g>
</g>

<g id="row number">
<path id="1" d="M1210.54 658V657.02H1212.79V649.124H1213.39L1211.01 650.636L1210.52 649.782L1213.11 648.13H1213.94V657.02H1216.05V658H1210.54Z" fill="#7C8DB0"/>
</g>

<g id="seat_3">
<g id=".base / business_3">
<rect x="1236.5" y="633" width="30" height="40" rx="4" fill="#E15454"/>
</g>
</g>

<g id="seat_4">
<g id=".base / business_4">
<rect x="1275" y="633" width="30" height="40" rx="4" fill="#E15454"/>
</g>
</g>
</g>

<g id="seat row / business_2">
<rect width="200" height="48" transform="translate(1113 689)" fill="white"/>

<g id="seat_5">
<g id=".base / business_5">
<rect x="1121" y="693" width="30" height="40" rx="4" fill="#E15454"/>
</g>
</g>

<g id="seat_6">
<g id=".base / business_6">
<rect x="1159.5" y="693" width="30" height="40" rx="4" fill="#E15454"/>
</g>
</g>

<g id="row number_2">
<path id="1_2" d="M1210.06 718V717.132L1213.44 713.492C1213.75 713.147 1214.01 712.825 1214.21 712.526C1214.4 712.218 1214.55 711.919 1214.64 711.63C1214.73 711.341 1214.78 711.047 1214.78 710.748C1214.78 710.188 1214.61 709.763 1214.26 709.474C1213.93 709.175 1213.43 709.026 1212.78 709.026C1212.27 709.026 1211.8 709.119 1211.36 709.306C1210.94 709.483 1210.52 709.763 1210.13 710.146L1209.7 709.25C1210.06 708.877 1210.52 708.578 1211.08 708.354C1211.65 708.121 1212.25 708.004 1212.88 708.004C1213.54 708.004 1214.1 708.107 1214.56 708.312C1215.01 708.517 1215.36 708.821 1215.59 709.222C1215.83 709.614 1215.94 710.095 1215.94 710.664C1215.94 710.963 1215.91 711.257 1215.83 711.546C1215.77 711.826 1215.66 712.111 1215.51 712.4C1215.37 712.68 1215.19 712.969 1214.96 713.268C1214.75 713.567 1214.49 713.875 1214.18 714.192L1211.21 717.342V717.02H1216.35V718H1210.06Z" fill="#7C8DB0"/>
</g>

<g id="seat_7">
<g id=".base / business_7">
<rect x="1236.5" y="693" width="30" height="40" rx="4" fill="#E15454"/>
</g>
</g>

<g id="seat_8">
<g id=".base / business_8">
<rect x="1275" y="693" width="30" height="40" rx="4" fill="#E15454"/>
</g>
</g>
</g>

<g id="seat row / business_3">
<rect width="200" height="48" transform="translate(1113 749)" fill="white"/>

<g id="seat_9">
<g id=".base / business_9">
<rect x="1121" y="753" width="30" height="40" rx="4" fill="#E15454"/>
</g>
</g>

<g id="seat_10">
<g id=".base / business_10">
<rect x="1159.5" y="753" width="30" height="40" rx="4" fill="#E15454"/>
</g>
</g>

<g id="row number_3">
<path id="1_3" d="M1212.89 778.126C1212.45 778.126 1212.03 778.079 1211.62 777.986C1211.22 777.893 1210.84 777.762 1210.48 777.594C1210.13 777.417 1209.82 777.202 1209.54 776.95L1209.96 776.04C1210.42 776.413 1210.88 776.684 1211.35 776.852C1211.82 777.02 1212.32 777.104 1212.86 777.104C1213.34 777.104 1213.74 777.034 1214.07 776.894C1214.39 776.754 1214.64 776.549 1214.81 776.278C1214.98 775.998 1215.06 775.657 1215.06 775.256C1215.06 774.677 1214.87 774.239 1214.49 773.94C1214.1 773.641 1213.55 773.492 1212.82 773.492H1211.36V772.498H1212.72C1213.15 772.498 1213.52 772.423 1213.81 772.274C1214.12 772.125 1214.36 771.915 1214.53 771.644C1214.7 771.364 1214.78 771.028 1214.78 770.636C1214.78 770.113 1214.61 769.717 1214.28 769.446C1213.94 769.166 1213.46 769.026 1212.82 769.026C1212.3 769.026 1211.82 769.119 1211.38 769.306C1210.94 769.483 1210.52 769.763 1210.13 770.146L1209.71 769.25C1210.09 768.858 1210.55 768.555 1211.11 768.34C1211.68 768.116 1212.27 768.004 1212.89 768.004C1213.53 768.004 1214.07 768.107 1214.51 768.312C1214.97 768.508 1215.32 768.797 1215.56 769.18C1215.81 769.553 1215.93 770.006 1215.93 770.538C1215.93 771.145 1215.76 771.667 1215.42 772.106C1215.09 772.535 1214.63 772.829 1214.05 772.988V772.834C1214.51 772.909 1214.9 773.058 1215.21 773.282C1215.54 773.506 1215.79 773.795 1215.96 774.15C1216.12 774.495 1216.21 774.892 1216.21 775.34C1216.21 775.909 1216.07 776.404 1215.8 776.824C1215.54 777.235 1215.16 777.557 1214.67 777.79C1214.17 778.014 1213.58 778.126 1212.89 778.126Z" fill="#7C8DB0"/>
</g>

<g id="seat_11">
<g id=".base / business_11">
<rect x="1236.5" y="753" width="30" height="40" rx="4" fill="#E15454"/>
</g>
</g>

<g id="seat_12">
<g id=".base / business_12">
<rect x="1275" y="753" width="30" height="40" rx="4" fill="#E15454"/>
</g>
</g>
</g>

<g id="seat row / business_4">
<rect width="200" height="48" transform="translate(1113 809)" fill="white"/>

<g id="seat_13">
<g id=".base / business_13">
<rect x="1121" y="813" width="30" height="40" rx="4" fill="#2E9881"/>
<g id="18 / check">
<path id="Vector 10" d="M1130.73 832.757L1134.48 836.515L1142 829" stroke="#F6F6FE" stroke-width="1.5" stroke-linecap="round" stroke-linejoin="round"/>
</g>
</g>
</g>

<g id="seat_14">
<g id=".base / business_14">
<rect x="1159.5" y="813" width="30" height="40" rx="4" fill="#E15454"/>
</g>
</g>

<g id="row number_4">
<path id="1_4" d="M1214.08 838V835.886H1209.53V835.018L1214.28 828.13H1215.24V834.906H1216.71V835.886H1215.24V838H1214.08ZM1214.08 834.906V829.516H1214.42L1210.51 835.214V834.906H1214.08Z" fill="#7C8DB0"/>
</g>

<g id="seat_15">
<g id=".base / business_15">
<rect x="1236.5" y="813" width="30" height="40" rx="4" fill="#E15454"/>
</g>
</g>

<g id="seat_16">
<g id=".base / business_16">
<rect x="1275" y="813" width="30" height="40" rx="4" fill="#E15454"/>
</g>
</g>
</g>

</g>

<g id="economy">
<rect x="1113" y="942" width="200" height="1332" rx="8" fill="white"/>

<g id="seat row / exit row">
<rect width="200" height="18" transform="translate(1113 950)" fill="white"/>
<path id="Exit row" d="M1139.41 963V954.54H1144.88V955.548H1140.61V958.2H1144.63V959.208H1140.61V961.992H1144.88V963H1139.41ZM1145.56 963L1148.24 959.676V960.276L1145.72 957.144H1147.13L1148.92 959.424H1148.49L1150.28 957.144H1151.69L1149.17 960.252V959.712L1151.85 963H1150.41L1148.49 960.576H1148.9L1146.99 963H1145.56ZM1152.64 955.788V954.528H1154.06V955.788H1152.64ZM1152.75 963V957.144H1153.96V963H1152.75ZM1158.17 963.108C1157.44 963.108 1156.89 962.92 1156.52 962.544C1156.16 962.168 1155.98 961.624 1155.98 960.912V958.08H1154.84V957.144H1155.98V955.38H1157.19V957.144H1159.01V958.08H1157.19V960.816C1157.19 961.24 1157.28 961.56 1157.46 961.776C1157.64 961.992 1157.94 962.1 1158.35 962.1C1158.47 962.1 1158.59 962.084 1158.71 962.052C1158.83 962.02 1158.96 961.988 1159.08 961.956L1159.27 962.868C1159.15 962.94 1158.98 962.996 1158.77 963.036C1158.56 963.084 1158.36 963.108 1158.17 963.108ZM1163.21 963V957.144H1164.38V958.548H1164.26C1164.39 958.068 1164.62 957.704 1164.95 957.456C1165.28 957.208 1165.73 957.064 1166.28 957.024L1166.67 957L1166.76 958.032L1166.03 958.104C1165.51 958.152 1165.11 958.316 1164.84 958.596C1164.57 958.876 1164.43 959.26 1164.43 959.748V963H1163.21ZM1170.14 963.108C1169.55 963.108 1169.04 962.984 1168.61 962.736C1168.18 962.488 1167.85 962.136 1167.61 961.68C1167.37 961.224 1167.25 960.688 1167.25 960.072C1167.25 959.448 1167.37 958.912 1167.61 958.464C1167.85 958.008 1168.18 957.656 1168.61 957.408C1169.04 957.16 1169.55 957.036 1170.14 957.036C1170.73 957.036 1171.23 957.16 1171.66 957.408C1172.09 957.656 1172.42 958.008 1172.66 958.464C1172.9 958.92 1173.02 959.456 1173.02 960.072C1173.02 960.688 1172.9 961.224 1172.66 961.68C1172.42 962.136 1172.09 962.488 1171.66 962.736C1171.23 962.984 1170.73 963.108 1170.14 963.108ZM1170.13 962.172C1170.64 962.172 1171.04 961.992 1171.34 961.632C1171.65 961.272 1171.8 960.752 1171.8 960.072C1171.8 959.384 1171.65 958.864 1171.34 958.512C1171.04 958.16 1170.64 957.984 1170.13 957.984C1169.64 957.984 1169.24 958.16 1168.93 958.512C1168.63 958.864 1168.48 959.384 1168.48 960.072C1168.48 960.752 1168.63 961.272 1168.93 961.632C1169.24 961.992 1169.64 962.172 1170.13 962.172ZM1175.86 963L1173.63 957.144H1174.88L1176.6 961.98H1176.31L1178.07 957.144H1179.01L1180.74 961.98H1180.47L1182.2 957.144H1183.39L1181.16 963H1180.05L1178.2 958.008H1178.8L1176.97 963H1175.86Z" fill="#FF9500"/>

<g id="18 / information">
<circle id="Ellipse 17" cx="1126" cy="959" r="6" stroke="#FF9500" stroke-width="1.5"/>
<path id="Union" fill-rule="evenodd" clip-rule="evenodd" d="M1126 957.667C1126.46 957.667 1126.83 957.294 1126.83 956.833C1126.83 956.373 1126.46 956 1126 956C1125.54 956 1125.17 956.373 1125.17 956.833C1125.17 957.294 1125.54 957.667 1126 957.667ZM1126.75 959C1126.75 958.586 1126.41 958.25 1126 958.25C1125.59 958.25 1125.25 958.586 1125.25 959V961.333C1125.25 961.748 1125.59 962.083 1126 962.083C1126.41 962.083 1126.75 961.748 1126.75 961.333V959Z" fill="#FF9500"/>
</g>
</g>

<g id="seat row / economy">
<rect width="200" height="40" transform="translate(1113 972)" fill="white"/>

<g id="seat_21">
<g id=".base / economy">
<rect x="1117" y="976" width="22" height="32" rx="4" fill="#FFE8D9"/>
</g>
</g>

<g id="seat_22">
<g id=".base / economy_2">
<rect x="1144" y="976" width="22" height="32" rx="4" fill="#F76641"/>
</g>
</g>

<g id="seat_23">
<g id=".base / economy_3">
<rect x="1171" y="976" width="22" height="32" rx="4" fill="#F76641"/>
</g>
</g>

<g id="row number_6">
<path id="1_6" d="M1213.35 997.126C1212.57 997.126 1211.9 996.939 1211.35 996.566C1210.81 996.183 1210.4 995.633 1210.12 994.914C1209.84 994.195 1209.7 993.327 1209.7 992.31C1209.7 991.171 1209.85 990.21 1210.16 989.426C1210.48 988.633 1210.94 988.031 1211.53 987.62C1212.14 987.209 1212.86 987.004 1213.69 987.004C1214.02 987.004 1214.37 987.055 1214.71 987.158C1215.06 987.251 1215.38 987.387 1215.68 987.564C1215.98 987.741 1216.25 987.951 1216.46 988.194L1216.04 989.09C1215.7 988.726 1215.32 988.46 1214.91 988.292C1214.51 988.115 1214.09 988.026 1213.66 988.026C1213.2 988.026 1212.8 988.11 1212.44 988.278C1212.1 988.446 1211.8 988.703 1211.55 989.048C1211.3 989.384 1211.12 989.809 1211 990.322C1210.88 990.826 1210.82 991.414 1210.82 992.086V993.388H1210.69C1210.75 992.856 1210.9 992.399 1211.15 992.016C1211.42 991.624 1211.75 991.325 1212.15 991.12C1212.55 990.915 1213 990.812 1213.51 990.812C1214.09 990.812 1214.6 990.943 1215.05 991.204C1215.49 991.465 1215.84 991.834 1216.1 992.31C1216.35 992.777 1216.47 993.313 1216.47 993.92C1216.47 994.536 1216.34 995.087 1216.08 995.572C1215.82 996.057 1215.45 996.44 1214.98 996.72C1214.5 996.991 1213.96 997.126 1213.35 997.126ZM1213.27 996.146C1213.68 996.146 1214.04 996.057 1214.36 995.88C1214.68 995.693 1214.93 995.437 1215.1 995.11C1215.28 994.774 1215.37 994.391 1215.37 993.962C1215.37 993.533 1215.28 993.155 1215.1 992.828C1214.93 992.501 1214.68 992.245 1214.36 992.058C1214.05 991.871 1213.69 991.778 1213.27 991.778C1212.86 991.778 1212.49 991.871 1212.18 992.058C1211.86 992.245 1211.61 992.501 1211.43 992.828C1211.26 993.155 1211.17 993.533 1211.17 993.962C1211.17 994.391 1211.26 994.774 1211.43 995.11C1211.61 995.437 1211.86 995.693 1212.18 995.88C1212.49 996.057 1212.86 996.146 1213.27 996.146Z" fill="#FF9500"/>
</g>

<g id="seat_24">
<g id=".base / economy_4">
<rect x="1233" y="976" width="22" height="32" rx="4" fill="#F76641"/>
</g>
</g>

<g id="seat_25">
<g id=".base / economy_5">
<rect x="1260" y="976" width="22" height="32" rx="4" fill="#F76641"/>
</g>
</g>

<g id="seat_26">
<g id=".base / economy_6">
<rect x="1287" y="976" width="22" height="32" rx="4" fill="#F76641"/>
</g>
</g>
</g>

<g id="seat row / economy_2">
<rect width="200" height="40" transform="translate(1113 1016)" fill="white"/>

<g id="seat_27">
<g id=".base / economy_7">
<rect x="1117" y="1020" width="22" height="32" rx="4" fill="#F76641"/>
</g>
</g>

<g id="seat_28">
<g id=".base / economy_8">
<rect x="1144" y="1020" width="22" height="32" rx="4" fill="#F76641"/>
</g>
</g>

<g id="seat_29">
<g id=".base / economy_9">
<rect x="1171" y="1020" width="22" height="32" rx="4" fill="#F76641"/>
</g>
</g>

<g id="row number_7">
<path id="1_7" d="M1210.37 1041L1215.21 1031.62V1032.12H1209.74V1031.13H1216.26V1032L1211.64 1041H1210.37Z" fill="#FF9500"/>
</g>

<g id="seat_30">
<g id=".base / economy_10">
<rect x="1233" y="1020" width="22" height="32" rx="4" fill="#F76641"/>
</g>
</g>

<g id="seat_31">
<g id=".base / economy_11">
<rect x="1260" y="1020" width="22" height="32" rx="4" fill="#F76641"/>
</g>
</g>

<g id="seat_32">
<g id=".base / economy_12">
<rect x="1287" y="1020" width="22" height="32" rx="4" fill="#F76641"/>
</g>
</g>
</g>

</g>
</g>
<defs>
<linearGradient id="paint0_linear_2261_2619" x1="151" y1="1312" x2="2275" y2="1312" gradientUnits="userSpaceOnUse">
<stop offset="0.28" stop-color="#FF8600"/>
<stop offset="0.489583" stop-color="#FFAB4D"/>
<stop offset="0.72" stop-color="#FFDAB1"/>
</linearGradient>
</defs>
</svg>
